solid OpenSCAD_Model
  facet normal -1 0 0
    outer loop
      vertex -9.5 -9.5 0
      vertex -9.5 9.5 3.16667
      vertex -9.5 9.5 0
    endloop
  endfacet
  facet normal -1 -0 0
    outer loop
      vertex -9.5 9.5 3.16667
      vertex -9.5 -9.5 0
      vertex -9.5 -9.5 3.16667
    endloop
  endfacet
  facet normal -0 0 1
    outer loop
      vertex -9.5 9.5 3.16667
      vertex 9.5 -9.5 3.16667
      vertex 9.5 9.5 3.16667
    endloop
  endfacet
  facet normal 0 0 1
    outer loop
      vertex 9.5 -9.5 3.16667
      vertex -9.5 9.5 3.16667
      vertex -9.5 -9.5 3.16667
    endloop
  endfacet
  facet normal 1 -0 0
    outer loop
      vertex 9.5 -9.5 3.16667
      vertex 9.5 9.5 0
      vertex 9.5 9.5 3.16667
    endloop
  endfacet
  facet normal 1 0 0
    outer loop
      vertex 9.5 9.5 0
      vertex 9.5 -9.5 3.16667
      vertex 9.5 -9.5 0
    endloop
  endfacet
  facet normal 0 0 -1
    outer loop
      vertex -9.5 -9.5 0
      vertex 9.5 9.5 0
      vertex 9.5 -9.5 0
    endloop
  endfacet
  facet normal -0 0 -1
    outer loop
      vertex 9.5 9.5 0
      vertex -9.5 -9.5 0
      vertex -9.5 9.5 0
    endloop
  endfacet
  facet normal 0 -1 0
    outer loop
      vertex -9.5 -9.5 0
      vertex 9.5 -9.5 3.16667
      vertex -9.5 -9.5 3.16667
    endloop
  endfacet
  facet normal 0 -1 -0
    outer loop
      vertex 9.5 -9.5 3.16667
      vertex -9.5 -9.5 0
      vertex 9.5 -9.5 0
    endloop
  endfacet
  facet normal 0 1 -0
    outer loop
      vertex 9.5 9.5 0
      vertex -9.5 9.5 3.16667
      vertex 9.5 9.5 3.16667
    endloop
  endfacet
  facet normal 0 1 0
    outer loop
      vertex -9.5 9.5 3.16667
      vertex 9.5 9.5 0
      vertex -9.5 9.5 0
    endloop
  endfacet
endsolid OpenSCAD_Model
