solid OpenSCAD_Model
  facet normal 0.608397 0 0.793633
    outer loop
      vertex 3.41906 2.3 -0.583407
      vertex 3.41912 -2.3 -0.583451
      vertex 3.41912 2.3 -0.583451
    endloop
  endfacet
  facet normal 0.608397 0 0.793633
    outer loop
      vertex 3.41912 -2.3 -0.583451
      vertex 3.41906 2.3 -0.583407
      vertex 3.41906 -2.3 -0.583407
    endloop
  endfacet
  facet normal 0.793353 -0 0.608762
    outer loop
      vertex 2.9714 -2.3 0
      vertex 3.41906 2.3 -0.583407
      vertex 2.9714 2.3 0
    endloop
  endfacet
  facet normal 0.793353 0 0.608762
    outer loop
      vertex 3.41906 2.3 -0.583407
      vertex 2.9714 -2.3 0
      vertex 3.41906 -2.3 -0.583407
    endloop
  endfacet
  facet normal 0 1 -0
    outer loop
      vertex 3.41912 -2.3 -0.583451
      vertex 2.9714 -2.3 0
      vertex 9.5 -2.3 0
    endloop
  endfacet
  facet normal 0 1 0
    outer loop
      vertex 2.9714 -2.3 0
      vertex 3.41912 -2.3 -0.583451
      vertex 3.41906 -2.3 -0.583407
    endloop
  endfacet
  facet normal 0 1 0
    outer loop
      vertex 6.00233 -2.3 -3.16667
      vertex 9.5 -2.3 0
      vertex 9.5 -2.3 -3.16667
    endloop
  endfacet
  facet normal 0 1 0
    outer loop
      vertex 9.5 -2.3 0
      vertex 6.00233 -2.3 -3.16667
      vertex 3.41912 -2.3 -0.583451
    endloop
  endfacet
  facet normal 0 -1 0
    outer loop
      vertex 3.41912 2.3 -0.583451
      vertex 2.9714 2.3 0
      vertex 3.41906 2.3 -0.583407
    endloop
  endfacet
  facet normal 0 -1 0
    outer loop
      vertex 2.9714 2.3 0
      vertex 3.41912 2.3 -0.583451
      vertex 9.5 2.3 0
    endloop
  endfacet
  facet normal 0 -1 0
    outer loop
      vertex 6.00233 2.3 -3.16667
      vertex 9.5 2.3 0
      vertex 3.41912 2.3 -0.583451
    endloop
  endfacet
  facet normal 0 -1 -0
    outer loop
      vertex 9.5 2.3 0
      vertex 6.00233 2.3 -3.16667
      vertex 9.5 2.3 -3.16667
    endloop
  endfacet
  facet normal 0.707108 -0 0.707106
    outer loop
      vertex 3.41912 -2.3 -0.583451
      vertex 6.00233 2.3 -3.16667
      vertex 3.41912 2.3 -0.583451
    endloop
  endfacet
  facet normal 0.707108 0 0.707106
    outer loop
      vertex 6.00233 2.3 -3.16667
      vertex 3.41912 -2.3 -0.583451
      vertex 6.00233 -2.3 -3.16667
    endloop
  endfacet
  facet normal -0.608397 0 0.793633
    outer loop
      vertex -3.41912 2.3 -0.583451
      vertex -3.41906 -2.3 -0.583407
      vertex -3.41906 2.3 -0.583407
    endloop
  endfacet
  facet normal -0.608397 0 0.793633
    outer loop
      vertex -3.41906 -2.3 -0.583407
      vertex -3.41912 2.3 -0.583451
      vertex -3.41912 -2.3 -0.583451
    endloop
  endfacet
  facet normal -0.793353 0 0.608762
    outer loop
      vertex -3.41906 -2.3 -0.583407
      vertex -2.9714 2.3 0
      vertex -3.41906 2.3 -0.583407
    endloop
  endfacet
  facet normal -0.793353 0 0.608762
    outer loop
      vertex -2.9714 2.3 0
      vertex -3.41906 -2.3 -0.583407
      vertex -2.9714 -2.3 0
    endloop
  endfacet
  facet normal 0 1 0
    outer loop
      vertex -3.41912 -2.3 -0.583451
      vertex -2.9714 -2.3 0
      vertex -3.41906 -2.3 -0.583407
    endloop
  endfacet
  facet normal 0 1 0
    outer loop
      vertex -2.9714 -2.3 0
      vertex -3.41912 -2.3 -0.583451
      vertex -9.5 -2.3 0
    endloop
  endfacet
  facet normal 0 1 -0
    outer loop
      vertex -6.00233 -2.3 -3.16667
      vertex -9.5 -2.3 0
      vertex -3.41912 -2.3 -0.583451
    endloop
  endfacet
  facet normal 0 1 0
    outer loop
      vertex -9.5 -2.3 0
      vertex -6.00233 -2.3 -3.16667
      vertex -9.5 -2.3 -3.16667
    endloop
  endfacet
  facet normal 0 -1 0
    outer loop
      vertex -3.41912 2.3 -0.583451
      vertex -2.9714 2.3 0
      vertex -9.5 2.3 0
    endloop
  endfacet
  facet normal 0 -1 0
    outer loop
      vertex -2.9714 2.3 0
      vertex -3.41912 2.3 -0.583451
      vertex -3.41906 2.3 -0.583407
    endloop
  endfacet
  facet normal 0 -1 0
    outer loop
      vertex -6.00233 2.3 -3.16667
      vertex -9.5 2.3 0
      vertex -9.5 2.3 -3.16667
    endloop
  endfacet
  facet normal 0 -1 0
    outer loop
      vertex -9.5 2.3 0
      vertex -6.00233 2.3 -3.16667
      vertex -3.41912 2.3 -0.583451
    endloop
  endfacet
  facet normal -0.707108 0 0.707106
    outer loop
      vertex -6.00233 -2.3 -3.16667
      vertex -3.41912 2.3 -0.583451
      vertex -6.00233 2.3 -3.16667
    endloop
  endfacet
  facet normal -0.707108 0 0.707106
    outer loop
      vertex -3.41912 2.3 -0.583451
      vertex -6.00233 -2.3 -3.16667
      vertex -3.41912 -2.3 -0.583451
    endloop
  endfacet
  facet normal -1 0 0
    outer loop
      vertex -9.5 -9.5 -3.16667
      vertex -9.5 -2.3 0
      vertex -9.5 -2.3 -3.16667
    endloop
  endfacet
  facet normal -1 -0 0
    outer loop
      vertex -9.5 -2.3 0
      vertex -9.5 -9.5 -3.16667
      vertex -9.5 -9.5 0
    endloop
  endfacet
  facet normal -1 0 0
    outer loop
      vertex -9.5 2.3 -3.16667
      vertex -9.5 9.5 0
      vertex -9.5 9.5 -3.16667
    endloop
  endfacet
  facet normal -1 -0 0
    outer loop
      vertex -9.5 9.5 0
      vertex -9.5 2.3 -3.16667
      vertex -9.5 2.3 0
    endloop
  endfacet
  facet normal 0 0 -1
    outer loop
      vertex 9.5 -9.5 -3.16667
      vertex 6.00233 -2.3 -3.16667
      vertex 9.5 -2.3 -3.16667
    endloop
  endfacet
  facet normal 0 0 -1
    outer loop
      vertex 6.00233 -2.3 -3.16667
      vertex -6.00233 -2.3 -3.16667
      vertex 6.00233 2.3 -3.16667
    endloop
  endfacet
  facet normal 0 0 -1
    outer loop
      vertex 9.5 -9.5 -3.16667
      vertex -6.00233 -2.3 -3.16667
      vertex 6.00233 -2.3 -3.16667
    endloop
  endfacet
  facet normal 0 0 -1
    outer loop
      vertex -9.5 -9.5 -3.16667
      vertex -6.00233 -2.3 -3.16667
      vertex 9.5 -9.5 -3.16667
    endloop
  endfacet
  facet normal -0 0 -1
    outer loop
      vertex -6.00233 -2.3 -3.16667
      vertex -9.5 -9.5 -3.16667
      vertex -9.5 -2.3 -3.16667
    endloop
  endfacet
  facet normal 0 0 -1
    outer loop
      vertex 6.00233 2.3 -3.16667
      vertex 9.5 9.5 -3.16667
      vertex 9.5 2.3 -3.16667
    endloop
  endfacet
  facet normal 0 0 -1
    outer loop
      vertex -6.00233 2.3 -3.16667
      vertex 6.00233 2.3 -3.16667
      vertex -6.00233 -2.3 -3.16667
    endloop
  endfacet
  facet normal 0 0 -1
    outer loop
      vertex 6.00233 2.3 -3.16667
      vertex -6.00233 2.3 -3.16667
      vertex 9.5 9.5 -3.16667
    endloop
  endfacet
  facet normal 0 0 -1
    outer loop
      vertex -9.5 9.5 -3.16667
      vertex -6.00233 2.3 -3.16667
      vertex -9.5 2.3 -3.16667
    endloop
  endfacet
  facet normal 0 0 -1
    outer loop
      vertex -6.00233 2.3 -3.16667
      vertex -9.5 9.5 -3.16667
      vertex 9.5 9.5 -3.16667
    endloop
  endfacet
  facet normal 1 -0 0
    outer loop
      vertex 9.5 -9.5 0
      vertex 9.5 -2.3 -3.16667
      vertex 9.5 -2.3 0
    endloop
  endfacet
  facet normal 1 0 0
    outer loop
      vertex 9.5 -2.3 -3.16667
      vertex 9.5 -9.5 0
      vertex 9.5 -9.5 -3.16667
    endloop
  endfacet
  facet normal 1 -0 0
    outer loop
      vertex 9.5 2.3 0
      vertex 9.5 9.5 -3.16667
      vertex 9.5 9.5 0
    endloop
  endfacet
  facet normal 1 0 0
    outer loop
      vertex 9.5 9.5 -3.16667
      vertex 9.5 2.3 0
      vertex 9.5 2.3 -3.16667
    endloop
  endfacet
  facet normal 0 0 1
    outer loop
      vertex 9.5 9.5 0
      vertex 2.9714 2.3 0
      vertex 9.5 2.3 0
    endloop
  endfacet
  facet normal 0 0 1
    outer loop
      vertex 2.9714 2.3 0
      vertex -2.9714 2.3 0
      vertex 2.9714 -2.3 0
    endloop
  endfacet
  facet normal 0 0 1
    outer loop
      vertex 9.5 9.5 0
      vertex -2.9714 2.3 0
      vertex 2.9714 2.3 0
    endloop
  endfacet
  facet normal -0 0 1
    outer loop
      vertex -9.5 9.5 0
      vertex -2.9714 2.3 0
      vertex 9.5 9.5 0
    endloop
  endfacet
  facet normal 0 0 1
    outer loop
      vertex -2.9714 2.3 0
      vertex -9.5 9.5 0
      vertex -9.5 2.3 0
    endloop
  endfacet
  facet normal -0 0 1
    outer loop
      vertex 2.9714 -2.3 0
      vertex 9.5 -9.5 0
      vertex 9.5 -2.3 0
    endloop
  endfacet
  facet normal 0 0 1
    outer loop
      vertex -2.9714 -2.3 0
      vertex 2.9714 -2.3 0
      vertex -2.9714 2.3 0
    endloop
  endfacet
  facet normal 0 0 1
    outer loop
      vertex 2.9714 -2.3 0
      vertex -2.9714 -2.3 0
      vertex 9.5 -9.5 0
    endloop
  endfacet
  facet normal 0 0 1
    outer loop
      vertex -9.5 -9.5 0
      vertex -2.9714 -2.3 0
      vertex -9.5 -2.3 0
    endloop
  endfacet
  facet normal 0 0 1
    outer loop
      vertex -2.9714 -2.3 0
      vertex -9.5 -9.5 0
      vertex 9.5 -9.5 0
    endloop
  endfacet
  facet normal 0 -1 0
    outer loop
      vertex -9.5 -9.5 -3.16667
      vertex 9.5 -9.5 0
      vertex -9.5 -9.5 0
    endloop
  endfacet
  facet normal 0 -1 -0
    outer loop
      vertex 9.5 -9.5 0
      vertex -9.5 -9.5 -3.16667
      vertex 9.5 -9.5 -3.16667
    endloop
  endfacet
  facet normal 0 1 -0
    outer loop
      vertex 9.5 9.5 -3.16667
      vertex -9.5 9.5 0
      vertex 9.5 9.5 0
    endloop
  endfacet
  facet normal 0 1 0
    outer loop
      vertex -9.5 9.5 0
      vertex 9.5 9.5 -3.16667
      vertex -9.5 9.5 -3.16667
    endloop
  endfacet
endsolid OpenSCAD_Model
