solid OpenSCAD_Model
  facet normal -0.997859 0 -0.0654041
    outer loop
      vertex -9.47134 2.3 0.731871
      vertex -9.5 9.5 1.16913
      vertex -9.47134 9.5 0.731871
    endloop
  endfacet
  facet normal -0.997859 -0 -0.0654041
    outer loop
      vertex -9.5 9.5 1.16913
      vertex -9.47134 2.3 0.731871
      vertex -9.5 2.3 1.16913
    endloop
  endfacet
  facet normal -0.997859 0 -0.0654041
    outer loop
      vertex -9.47134 -9.5 0.731871
      vertex -9.5 -2.3 1.16913
      vertex -9.47134 -2.3 0.731871
    endloop
  endfacet
  facet normal -0.997859 -0 -0.0654041
    outer loop
      vertex -9.5 -2.3 1.16913
      vertex -9.47134 -9.5 0.731871
      vertex -9.5 -9.5 1.16913
    endloop
  endfacet
  facet normal -1 0 0
    outer loop
      vertex -9.28331 2.3 0
      vertex -9.28331 9.5 4.21885e-15
      vertex -9.28331 9.5 0
    endloop
  endfacet
  facet normal -0.94693 1.88348e-16 -0.32144
    outer loop
      vertex -9.28331 9.5 4.21885e-15
      vertex -9.28331 2.3 0
      vertex -9.38585 9.5 0.30209
    endloop
  endfacet
  facet normal -0.94693 -0 -0.32144
    outer loop
      vertex -9.38585 9.5 0.30209
      vertex -9.28331 2.3 0
      vertex -9.38585 2.3 0.30209
    endloop
  endfacet
  facet normal -0.94693 0 -0.32144
    outer loop
      vertex -9.28331 -9.5 0
      vertex -9.38585 -2.3 0.30209
      vertex -9.28331 -2.3 0
    endloop
  endfacet
  facet normal -0.94693 -0 -0.32144
    outer loop
      vertex -9.38585 -2.3 0.30209
      vertex -9.28331 -9.5 0
      vertex -9.38585 -9.5 0.30209
    endloop
  endfacet
  facet normal -0.980785 0 -0.195089
    outer loop
      vertex -9.38585 2.3 0.30209
      vertex -9.47134 9.5 0.731871
      vertex -9.38585 9.5 0.30209
    endloop
  endfacet
  facet normal -0.980785 -0 -0.195089
    outer loop
      vertex -9.47134 9.5 0.731871
      vertex -9.38585 2.3 0.30209
      vertex -9.47134 2.3 0.731871
    endloop
  endfacet
  facet normal -0.980785 0 -0.195089
    outer loop
      vertex -9.38585 -9.5 0.30209
      vertex -9.47134 -2.3 0.731871
      vertex -9.38585 -2.3 0.30209
    endloop
  endfacet
  facet normal -0.980785 -0 -0.195089
    outer loop
      vertex -9.47134 -2.3 0.731871
      vertex -9.38585 -9.5 0.30209
      vertex -9.47134 -9.5 0.731871
    endloop
  endfacet
  facet normal 0 1 0
    outer loop
      vertex -6.15 9.5 1.16913
      vertex -9.47134 9.5 0.731871
      vertex -9.5 9.5 1.16913
    endloop
  endfacet
  facet normal 0 1 0
    outer loop
      vertex -6.15 9.5 1.16913
      vertex -9.38585 9.5 0.30209
      vertex -9.47134 9.5 0.731871
    endloop
  endfacet
  facet normal 0 1 0
    outer loop
      vertex -9.28331 9.5 4.21885e-15
      vertex -6.15 9.5 1.16913
      vertex -6.15 9.5 4.21885e-15
    endloop
  endfacet
  facet normal 0 1 0
    outer loop
      vertex -6.15 9.5 1.16913
      vertex -9.28331 9.5 4.21885e-15
      vertex -9.38585 9.5 0.30209
    endloop
  endfacet
  facet normal 0 1 -0
    outer loop
      vertex 9.28331 9.5 0
      vertex 6.15 9.5 4.21885e-15
      vertex 9.28331 9.5 4.21885e-15
    endloop
  endfacet
  facet normal 0 1 0
    outer loop
      vertex 6.15 9.5 4.21885e-15
      vertex 9.28331 9.5 0
      vertex -6.15 9.5 4.21885e-15
    endloop
  endfacet
  facet normal 0 1 0
    outer loop
      vertex -9.28331 9.5 0
      vertex -6.15 9.5 4.21885e-15
      vertex 9.28331 9.5 0
    endloop
  endfacet
  facet normal 0 1 0
    outer loop
      vertex -6.15 9.5 4.21885e-15
      vertex -9.28331 9.5 0
      vertex -9.28331 9.5 4.21885e-15
    endloop
  endfacet
  facet normal 0 1 -0
    outer loop
      vertex 6.15 9.5 4.21885e-15
      vertex -6.15 9.5 1.16913
      vertex 6.15 9.5 1.16913
    endloop
  endfacet
  facet normal 0 1 0
    outer loop
      vertex -6.15 9.5 1.16913
      vertex 6.15 9.5 4.21885e-15
      vertex -6.15 9.5 4.21885e-15
    endloop
  endfacet
  facet normal 0 1 0
    outer loop
      vertex 6.15 9.5 1.16913
      vertex 9.5 9.5 3.16667
      vertex 9.5 9.5 1.16913
    endloop
  endfacet
  facet normal 0 1 0
    outer loop
      vertex 9.5 9.5 3.16667
      vertex 6.15 9.5 1.16913
      vertex -9.5 9.5 3.16667
    endloop
  endfacet
  facet normal 0 1 -0
    outer loop
      vertex -6.15 9.5 1.16913
      vertex -9.5 9.5 3.16667
      vertex 6.15 9.5 1.16913
    endloop
  endfacet
  facet normal 0 1 0
    outer loop
      vertex -9.5 9.5 3.16667
      vertex -6.15 9.5 1.16913
      vertex -9.5 9.5 1.16913
    endloop
  endfacet
  facet normal 0 0 -1
    outer loop
      vertex -6.67499 0.4 0
      vertex -5.32501 0.4 0
      vertex -5.32501 0 0
    endloop
  endfacet
  facet normal 0 0 -1
    outer loop
      vertex -6.67499 0.4 0
      vertex -5.32501 0 0
      vertex -6.67499 0 0
    endloop
  endfacet
  facet normal 0 0 -1
    outer loop
      vertex 5.32501 0.4 0
      vertex 6.67499 0.4 0
      vertex 6.67499 0 0
    endloop
  endfacet
  facet normal 0 0 -1
    outer loop
      vertex 5.32501 0.4 0
      vertex 6.67499 0 0
      vertex 5.32501 0 0
    endloop
  endfacet
  facet normal 0 0 -1
    outer loop
      vertex 6.67499 2.3 0
      vertex 9.28331 9.5 0
      vertex 9.28331 2.3 0
    endloop
  endfacet
  facet normal 0 0 -1
    outer loop
      vertex 6.67499 0.4 0
      vertex 5.32501 0.4 0
      vertex 6.67499 2.3 0
    endloop
  endfacet
  facet normal 0 0 -1
    outer loop
      vertex 5.32501 2.3 0
      vertex 6.67499 2.3 0
      vertex 5.32501 0.4 0
    endloop
  endfacet
  facet normal 0 0 -1
    outer loop
      vertex 6.67499 2.3 0
      vertex 5.32501 2.3 0
      vertex 9.28331 9.5 0
    endloop
  endfacet
  facet normal 0 0 -1
    outer loop
      vertex 2.56734 2.3 0
      vertex 9.28331 9.5 0
      vertex 5.32501 2.3 0
    endloop
  endfacet
  facet normal 0 0 -1
    outer loop
      vertex -2.56734 2.3 0
      vertex 2.56734 2.3 0
      vertex -2.56734 -2.3 0
    endloop
  endfacet
  facet normal 0 0 -1
    outer loop
      vertex 2.56734 2.3 0
      vertex -2.56734 2.3 0
      vertex 9.28331 9.5 0
    endloop
  endfacet
  facet normal 0 0 -1
    outer loop
      vertex -9.28331 9.5 0
      vertex -2.56734 2.3 0
      vertex -5.32501 2.3 0
    endloop
  endfacet
  facet normal 0 0 -1
    outer loop
      vertex -5.32501 0.4 0
      vertex -6.67499 0.4 0
      vertex -5.32501 2.3 0
    endloop
  endfacet
  facet normal 0 0 -1
    outer loop
      vertex -6.67499 2.3 0
      vertex -5.32501 2.3 0
      vertex -6.67499 0.4 0
    endloop
  endfacet
  facet normal 0 0 -1
    outer loop
      vertex -9.28331 9.5 0
      vertex -5.32501 2.3 0
      vertex -6.67499 2.3 0
    endloop
  endfacet
  facet normal 0 0 -1
    outer loop
      vertex -9.28331 9.5 0
      vertex -6.67499 2.3 0
      vertex -9.28331 2.3 0
    endloop
  endfacet
  facet normal 0 0 -1
    outer loop
      vertex -2.56734 2.3 0
      vertex -9.28331 9.5 0
      vertex 9.28331 9.5 0
    endloop
  endfacet
  facet normal 0 0 -1
    outer loop
      vertex 9.28331 -9.5 0
      vertex 2.56734 -2.3 0
      vertex 9.28331 -2.3 0
    endloop
  endfacet
  facet normal 0 0 -1
    outer loop
      vertex 2.56734 -2.3 0
      vertex -2.56734 -2.3 0
      vertex 2.56734 2.3 0
    endloop
  endfacet
  facet normal 0 0 -1
    outer loop
      vertex 9.28331 -9.5 0
      vertex -2.56734 -2.3 0
      vertex 2.56734 -2.3 0
    endloop
  endfacet
  facet normal 0 0 -1
    outer loop
      vertex -9.28331 -9.5 0
      vertex -2.56734 -2.3 0
      vertex 9.28331 -9.5 0
    endloop
  endfacet
  facet normal -0 0 -1
    outer loop
      vertex -2.56734 -2.3 0
      vertex -9.28331 -9.5 0
      vertex -9.28331 -2.3 0
    endloop
  endfacet
  facet normal 0 -1 0
    outer loop
      vertex -9.28331 -9.5 0
      vertex -9.5 -9.5 3.16667
      vertex -9.5 -9.5 1.16913
    endloop
  endfacet
  facet normal 0 -1 0
    outer loop
      vertex -9.5 -9.5 3.16667
      vertex -9.28331 -9.5 0
      vertex 9.5 -9.5 3.16667
    endloop
  endfacet
  facet normal 0 -1 0
    outer loop
      vertex -9.28331 -9.5 0
      vertex -9.5 -9.5 1.16913
      vertex -9.47134 -9.5 0.731871
    endloop
  endfacet
  facet normal 0 -1 0
    outer loop
      vertex 9.28331 -9.5 0
      vertex 9.5 -9.5 3.16667
      vertex -9.28331 -9.5 0
    endloop
  endfacet
  facet normal 0 -1 0
    outer loop
      vertex -9.28331 -9.5 0
      vertex -9.47134 -9.5 0.731871
      vertex -9.38585 -9.5 0.30209
    endloop
  endfacet
  facet normal 0 -1 -0
    outer loop
      vertex 9.5 -9.5 3.16667
      vertex 9.28331 -9.5 0
      vertex 9.5 -9.5 1.16913
    endloop
  endfacet
  facet normal 0 -1 0
    outer loop
      vertex 9.5 -9.5 1.16913
      vertex 9.28331 -9.5 0
      vertex 9.47134 -9.5 0.731871
    endloop
  endfacet
  facet normal 0 -1 0
    outer loop
      vertex 9.47134 -9.5 0.731871
      vertex 9.28331 -9.5 0
      vertex 9.38585 -9.5 0.30209
    endloop
  endfacet
  facet normal 0.997859 0 -0.0654041
    outer loop
      vertex 9.5 2.3 1.16913
      vertex 9.47134 9.5 0.731871
      vertex 9.5 9.5 1.16913
    endloop
  endfacet
  facet normal 0.997859 0 -0.0654041
    outer loop
      vertex 9.47134 9.5 0.731871
      vertex 9.5 2.3 1.16913
      vertex 9.47134 2.3 0.731871
    endloop
  endfacet
  facet normal 0.997859 0 -0.0654041
    outer loop
      vertex 9.5 -9.5 1.16913
      vertex 9.47134 -2.3 0.731871
      vertex 9.5 -2.3 1.16913
    endloop
  endfacet
  facet normal 0.997859 0 -0.0654041
    outer loop
      vertex 9.47134 -2.3 0.731871
      vertex 9.5 -9.5 1.16913
      vertex 9.47134 -9.5 0.731871
    endloop
  endfacet
  facet normal 0.94693 0 -0.32144
    outer loop
      vertex 9.38585 2.3 0.30209
      vertex 9.28331 9.5 4.21885e-15
      vertex 9.38585 9.5 0.30209
    endloop
  endfacet
  facet normal 0.94693 1.88348e-16 -0.32144
    outer loop
      vertex 9.28331 2.3 0
      vertex 9.28331 9.5 4.21885e-15
      vertex 9.38585 2.3 0.30209
    endloop
  endfacet
  facet normal 1 0 0
    outer loop
      vertex 9.28331 9.5 4.21885e-15
      vertex 9.28331 2.3 0
      vertex 9.28331 9.5 0
    endloop
  endfacet
  facet normal 0.94693 0 -0.32144
    outer loop
      vertex 9.38585 -9.5 0.30209
      vertex 9.28331 -2.3 0
      vertex 9.38585 -2.3 0.30209
    endloop
  endfacet
  facet normal 0.94693 0 -0.32144
    outer loop
      vertex 9.28331 -2.3 0
      vertex 9.38585 -9.5 0.30209
      vertex 9.28331 -9.5 0
    endloop
  endfacet
  facet normal 0.980785 0 -0.195089
    outer loop
      vertex 9.47134 2.3 0.731871
      vertex 9.38585 9.5 0.30209
      vertex 9.47134 9.5 0.731871
    endloop
  endfacet
  facet normal 0.980785 0 -0.195089
    outer loop
      vertex 9.38585 9.5 0.30209
      vertex 9.47134 2.3 0.731871
      vertex 9.38585 2.3 0.30209
    endloop
  endfacet
  facet normal 0.980785 0 -0.195089
    outer loop
      vertex 9.47134 -9.5 0.731871
      vertex 9.38585 -2.3 0.30209
      vertex 9.47134 -2.3 0.731871
    endloop
  endfacet
  facet normal 0.980785 0 -0.195089
    outer loop
      vertex 9.38585 -2.3 0.30209
      vertex 9.47134 -9.5 0.731871
      vertex 9.38585 -9.5 0.30209
    endloop
  endfacet
  facet normal 0 1 -0
    outer loop
      vertex 9.47134 9.5 0.731871
      vertex 6.15 9.5 1.16913
      vertex 9.5 9.5 1.16913
    endloop
  endfacet
  facet normal 0 1 -0
    outer loop
      vertex 9.38585 9.5 0.30209
      vertex 6.15 9.5 1.16913
      vertex 9.47134 9.5 0.731871
    endloop
  endfacet
  facet normal 0 1 -0
    outer loop
      vertex 9.28331 9.5 4.21885e-15
      vertex 6.15 9.5 1.16913
      vertex 9.38585 9.5 0.30209
    endloop
  endfacet
  facet normal 0 1 0
    outer loop
      vertex 6.15 9.5 1.16913
      vertex 9.28331 9.5 4.21885e-15
      vertex 6.15 9.5 4.21885e-15
    endloop
  endfacet
  facet normal 0.991445 -0 0.130526
    outer loop
      vertex 2.35 -2.3 1.16913
      vertex 2.47437 2.3 0.224445
      vertex 2.35 2.3 1.16913
    endloop
  endfacet
  facet normal 0.991445 0 0.130526
    outer loop
      vertex 2.47437 2.3 0.224445
      vertex 2.35 -2.3 1.16913
      vertex 2.47437 -2.3 0.224445
    endloop
  endfacet
  facet normal 0.793353 0 -0.608762
    outer loop
      vertex 2.9714 -2.3 3.16667
      vertex 2.83901 2.3 2.99413
      vertex 2.9714 2.3 3.16667
    endloop
  endfacet
  facet normal 0.793353 0 -0.608762
    outer loop
      vertex 2.83901 2.3 2.99413
      vertex 2.9714 -2.3 3.16667
      vertex 2.83901 -2.3 2.99413
    endloop
  endfacet
  facet normal 0.991445 0 -0.130526
    outer loop
      vertex 2.47437 -2.3 2.11382
      vertex 2.35 2.3 1.16913
      vertex 2.47437 2.3 2.11382
    endloop
  endfacet
  facet normal 0.991445 0 -0.130526
    outer loop
      vertex 2.35 2.3 1.16913
      vertex 2.47437 -2.3 2.11382
      vertex 2.35 -2.3 1.16913
    endloop
  endfacet
  facet normal 0 1 -0
    outer loop
      vertex 6 -2.3 2.51912
      vertex 2.9714 -2.3 3.16667
      vertex 9.5 -2.3 3.16667
    endloop
  endfacet
  facet normal 0 1 -0
    outer loop
      vertex 5.76558 -2.3 2.49861
      vertex 2.9714 -2.3 3.16667
      vertex 6 -2.3 2.51912
    endloop
  endfacet
  facet normal 0 1 0
    outer loop
      vertex 9.5 -2.3 3.16667
      vertex 6.23442 -2.3 2.49861
      vertex 6 -2.3 2.51912
    endloop
  endfacet
  facet normal 0 1 0
    outer loop
      vertex 9.5 -2.3 3.16667
      vertex 6.46172 -2.3 2.43771
      vertex 6.23442 -2.3 2.49861
    endloop
  endfacet
  facet normal 0 1 0
    outer loop
      vertex 9.5 -2.3 3.16667
      vertex 6.67499 -2.3 2.33826
      vertex 6.46172 -2.3 2.43771
    endloop
  endfacet
  facet normal 0 1 -0
    outer loop
      vertex 9.5 -2.3 1.16913
      vertex 6.67499 -2.3 2.33826
      vertex 9.5 -2.3 3.16667
    endloop
  endfacet
  facet normal 0 1 0
    outer loop
      vertex 6.67499 -2.3 5.10702e-16
      vertex 9.5 -2.3 1.16913
      vertex 9.47134 -2.3 0.731871
    endloop
  endfacet
  facet normal 0 1 0
    outer loop
      vertex 6.67499 -2.3 5.10702e-16
      vertex 9.47134 -2.3 0.731871
      vertex 9.38585 -2.3 0.30209
    endloop
  endfacet
  facet normal 0 1 0
    outer loop
      vertex 9.5 -2.3 1.16913
      vertex 6.67499 -2.3 5.10702e-16
      vertex 6.67499 -2.3 2.33826
    endloop
  endfacet
  facet normal 0 1 0
    outer loop
      vertex 6.67499 -2.3 5.10702e-16
      vertex 9.28331 -2.3 0
      vertex 5.32501 -2.3 5.10702e-16
    endloop
  endfacet
  facet normal 0 1 -0
    outer loop
      vertex 9.28331 -2.3 0
      vertex 6.67499 -2.3 5.10702e-16
      vertex 9.38585 -2.3 0.30209
    endloop
  endfacet
  facet normal 0 1 -0
    outer loop
      vertex 5.53828 -2.3 2.43771
      vertex 2.9714 -2.3 3.16667
      vertex 5.76558 -2.3 2.49861
    endloop
  endfacet
  facet normal 0 1 -0
    outer loop
      vertex 5.32501 -2.3 2.33826
      vertex 2.9714 -2.3 3.16667
      vertex 5.53828 -2.3 2.43771
    endloop
  endfacet
  facet normal 0 1 0
    outer loop
      vertex 2.9714 -2.3 3.16667
      vertex 5.32501 -2.3 2.33826
      vertex 2.83901 -2.3 2.99413
    endloop
  endfacet
  facet normal 0 1 0
    outer loop
      vertex 5.32501 -2.3 2.33826
      vertex 2.47437 -2.3 2.11382
      vertex 2.83901 -2.3 2.99413
    endloop
  endfacet
  facet normal 0 1 0
    outer loop
      vertex 5.32501 -2.3 2.33826
      vertex 2.35 -2.3 1.16913
      vertex 2.47437 -2.3 2.11382
    endloop
  endfacet
  facet normal 0 1 -0
    outer loop
      vertex 5.32501 -2.3 5.10702e-16
      vertex 2.35 -2.3 1.16913
      vertex 5.32501 -2.3 2.33826
    endloop
  endfacet
  facet normal 0 1 0
    outer loop
      vertex 2.35 -2.3 1.16913
      vertex 5.32501 -2.3 5.10702e-16
      vertex 2.47437 -2.3 0.224445
    endloop
  endfacet
  facet normal 0 1 0
    outer loop
      vertex 5.32501 -2.3 5.10702e-16
      vertex 2.56734 -2.3 0
      vertex 2.47437 -2.3 0.224445
    endloop
  endfacet
  facet normal 0 1 0
    outer loop
      vertex 2.56734 -2.3 0
      vertex 5.32501 -2.3 5.10702e-16
      vertex 9.28331 -2.3 0
    endloop
  endfacet
  facet normal 0 -1 0
    outer loop
      vertex 2.9714 2.3 3.16667
      vertex 5.76558 2.3 2.49861
      vertex 6 2.3 2.51912
    endloop
  endfacet
  facet normal 0 -1 0
    outer loop
      vertex 2.9714 2.3 3.16667
      vertex 5.53828 2.3 2.43771
      vertex 5.76558 2.3 2.49861
    endloop
  endfacet
  facet normal 0 -1 0
    outer loop
      vertex 2.9714 2.3 3.16667
      vertex 5.32501 2.3 2.33826
      vertex 5.53828 2.3 2.43771
    endloop
  endfacet
  facet normal 0 -1 0
    outer loop
      vertex 2.47437 2.3 2.11382
      vertex 5.32501 2.3 2.33826
      vertex 2.83901 2.3 2.99413
    endloop
  endfacet
  facet normal 0 -1 0
    outer loop
      vertex 2.35 2.3 1.16913
      vertex 5.32501 2.3 2.33826
      vertex 2.47437 2.3 2.11382
    endloop
  endfacet
  facet normal 0 -1 0
    outer loop
      vertex 5.32501 2.3 0
      vertex 2.35 2.3 1.16913
      vertex 2.47437 2.3 0.224445
    endloop
  endfacet
  facet normal 0 -1 0
    outer loop
      vertex 5.32501 2.3 0
      vertex 2.47437 2.3 0.224445
      vertex 2.56734 2.3 0
    endloop
  endfacet
  facet normal 0 -1 0
    outer loop
      vertex 2.35 2.3 1.16913
      vertex 5.32501 2.3 0
      vertex 5.32501 2.3 2.33826
    endloop
  endfacet
  facet normal 0 -1 0
    outer loop
      vertex 5.32501 2.3 2.33826
      vertex 2.9714 2.3 3.16667
      vertex 2.83901 2.3 2.99413
    endloop
  endfacet
  facet normal 0 -1 0
    outer loop
      vertex 2.9714 2.3 3.16667
      vertex 6 2.3 2.51912
      vertex 9.5 2.3 3.16667
    endloop
  endfacet
  facet normal 0 -1 0
    outer loop
      vertex 6.23442 2.3 2.49861
      vertex 9.5 2.3 3.16667
      vertex 6 2.3 2.51912
    endloop
  endfacet
  facet normal 0 -1 0
    outer loop
      vertex 6.46172 2.3 2.43771
      vertex 9.5 2.3 3.16667
      vertex 6.23442 2.3 2.49861
    endloop
  endfacet
  facet normal 0 -1 0
    outer loop
      vertex 6.67499 2.3 2.33826
      vertex 9.5 2.3 3.16667
      vertex 6.46172 2.3 2.43771
    endloop
  endfacet
  facet normal 0 -1 0
    outer loop
      vertex 6.67499 2.3 2.33826
      vertex 9.5 2.3 1.16913
      vertex 9.5 2.3 3.16667
    endloop
  endfacet
  facet normal 0 -1 0
    outer loop
      vertex 6.67499 2.3 0
      vertex 9.5 2.3 1.16913
      vertex 6.67499 2.3 2.33826
    endloop
  endfacet
  facet normal 0 -1 0
    outer loop
      vertex 9.5 2.3 1.16913
      vertex 6.67499 2.3 0
      vertex 9.47134 2.3 0.731871
    endloop
  endfacet
  facet normal 0 -1 0
    outer loop
      vertex 9.47134 2.3 0.731871
      vertex 6.67499 2.3 0
      vertex 9.38585 2.3 0.30209
    endloop
  endfacet
  facet normal 0 -1 0
    outer loop
      vertex 9.38585 2.3 0.30209
      vertex 6.67499 2.3 0
      vertex 9.28331 2.3 0
    endloop
  endfacet
  facet normal 0.92388 -0 0.382683
    outer loop
      vertex 2.47437 -2.3 0.224445
      vertex 2.56734 2.3 0
      vertex 2.47437 2.3 0.224445
    endloop
  endfacet
  facet normal 0.92388 0 0.382683
    outer loop
      vertex 2.56734 2.3 0
      vertex 2.47437 -2.3 0.224445
      vertex 2.56734 -2.3 0
    endloop
  endfacet
  facet normal 0.92388 0 -0.382683
    outer loop
      vertex 2.83901 -2.3 2.99413
      vertex 2.47437 2.3 2.11382
      vertex 2.83901 2.3 2.99413
    endloop
  endfacet
  facet normal 0.92388 0 -0.382683
    outer loop
      vertex 2.47437 2.3 2.11382
      vertex 2.83901 -2.3 2.99413
      vertex 2.47437 -2.3 2.11382
    endloop
  endfacet
  facet normal 0.258797 0 0.965932
    outer loop
      vertex 6.23442 2.3 2.49861
      vertex 6.46172 -2.3 2.43771
      vertex 6.46172 2.3 2.43771
    endloop
  endfacet
  facet normal 0.258797 0 0.965932
    outer loop
      vertex 6.46172 -2.3 2.43771
      vertex 6.23442 2.3 2.49861
      vertex 6.23442 -2.3 2.49861
    endloop
  endfacet
  facet normal -1 0 0
    outer loop
      vertex 5.32501 0.4 0
      vertex 5.32501 2.3 2.33826
      vertex 5.32501 2.3 0
    endloop
  endfacet
  facet normal -1 -0 0
    outer loop
      vertex 5.32501 2.3 2.33826
      vertex 5.32501 0.4 0
      vertex 5.32501 0.4 2.33826
    endloop
  endfacet
  facet normal -1 0 0
    outer loop
      vertex 5.32501 -2.3 5.10702e-16
      vertex 5.32501 -0.4 2.33826
      vertex 5.32501 -0.4 8.88178e-17
    endloop
  endfacet
  facet normal -1 -0 0
    outer loop
      vertex 5.32501 -0.4 2.33826
      vertex 5.32501 -2.3 5.10702e-16
      vertex 5.32501 -2.3 2.33826
    endloop
  endfacet
  facet normal 0.422641 0 0.906297
    outer loop
      vertex 6.46172 2.3 2.43771
      vertex 6.67499 0.4 2.33826
      vertex 6.67499 2.3 2.33826
    endloop
  endfacet
  facet normal 0.422641 0 0.906297
    outer loop
      vertex 6.67499 0.4 2.33826
      vertex 6.46172 2.3 2.43771
      vertex 6.67499 -0.4 2.33826
    endloop
  endfacet
  facet normal 0.422641 -0 0.906297
    outer loop
      vertex 6.46172 -2.3 2.43771
      vertex 6.67499 -0.4 2.33826
      vertex 6.46172 2.3 2.43771
    endloop
  endfacet
  facet normal 0.422641 0 0.906297
    outer loop
      vertex 6.67499 -0.4 2.33826
      vertex 6.46172 -2.3 2.43771
      vertex 6.67499 -2.3 2.33826
    endloop
  endfacet
  facet normal 0 -2.22045e-16 -1
    outer loop
      vertex 5.32501 -0.4 8.88178e-17
      vertex 6.67499 -0.4 8.88178e-17
      vertex 6.67499 -2.3 5.10702e-16
    endloop
  endfacet
  facet normal 0 -2.22045e-16 -1
    outer loop
      vertex 5.32501 -0.4 8.88178e-17
      vertex 6.67499 -2.3 5.10702e-16
      vertex 5.32501 -2.3 5.10702e-16
    endloop
  endfacet
  facet normal -0 -2.22045e-16 -1
    outer loop
      vertex 6.67499 -0.4 8.88178e-17
      vertex 5.32501 -0.4 8.88178e-17
      vertex 6.67499 0 0
    endloop
  endfacet
  facet normal -0 -2.22045e-16 -1
    outer loop
      vertex 6.67499 0 0
      vertex 5.32501 -0.4 8.88178e-17
      vertex 5.32501 0 0
    endloop
  endfacet
  facet normal -0.422641 0 0.906297
    outer loop
      vertex 5.32501 0.4 2.33826
      vertex 5.53828 2.3 2.43771
      vertex 5.32501 2.3 2.33826
    endloop
  endfacet
  facet normal -0.422641 0 0.906297
    outer loop
      vertex 5.53828 2.3 2.43771
      vertex 5.32501 0.4 2.33826
      vertex 5.53828 -2.3 2.43771
    endloop
  endfacet
  facet normal -0.422641 0 0.906297
    outer loop
      vertex 5.32501 -0.4 2.33826
      vertex 5.53828 -2.3 2.43771
      vertex 5.32501 0.4 2.33826
    endloop
  endfacet
  facet normal -0.422641 0 0.906297
    outer loop
      vertex 5.53828 -2.3 2.43771
      vertex 5.32501 -0.4 2.33826
      vertex 5.32501 -2.3 2.33826
    endloop
  endfacet
  facet normal 1 -0 0
    outer loop
      vertex 6.67499 0.4 2.33826
      vertex 6.67499 2.3 0
      vertex 6.67499 2.3 2.33826
    endloop
  endfacet
  facet normal 1 0 0
    outer loop
      vertex 6.67499 2.3 0
      vertex 6.67499 0.4 2.33826
      vertex 6.67499 0.4 0
    endloop
  endfacet
  facet normal 1 -0 0
    outer loop
      vertex 6.67499 -2.3 2.33826
      vertex 6.67499 -0.4 8.88178e-17
      vertex 6.67499 -0.4 2.33826
    endloop
  endfacet
  facet normal 1 0 0
    outer loop
      vertex 6.67499 -0.4 8.88178e-17
      vertex 6.67499 -2.3 2.33826
      vertex 6.67499 -2.3 5.10702e-16
    endloop
  endfacet
  facet normal -0.0871501 0 0.996195
    outer loop
      vertex 5.76558 2.3 2.49861
      vertex 6 -2.3 2.51912
      vertex 6 2.3 2.51912
    endloop
  endfacet
  facet normal -0.0871501 0 0.996195
    outer loop
      vertex 6 -2.3 2.51912
      vertex 5.76558 2.3 2.49861
      vertex 5.76558 -2.3 2.49861
    endloop
  endfacet
  facet normal -0.258797 0 0.965932
    outer loop
      vertex 5.53828 2.3 2.43771
      vertex 5.76558 -2.3 2.49861
      vertex 5.76558 2.3 2.49861
    endloop
  endfacet
  facet normal -0.258797 0 0.965932
    outer loop
      vertex 5.76558 -2.3 2.49861
      vertex 5.53828 2.3 2.43771
      vertex 5.53828 -2.3 2.43771
    endloop
  endfacet
  facet normal 0.0871501 0 0.996195
    outer loop
      vertex 6 2.3 2.51912
      vertex 6.23442 -2.3 2.49861
      vertex 6.23442 2.3 2.49861
    endloop
  endfacet
  facet normal 0.0871501 0 0.996195
    outer loop
      vertex 6.23442 -2.3 2.49861
      vertex 6 2.3 2.51912
      vertex 6 -2.3 2.51912
    endloop
  endfacet
  facet normal 0.573545 -1.81893e-16 -0.819174
    outer loop
      vertex 6.67499 0 0
      vertex 6.86775 -0.4 0.134964
      vertex 6.67499 -0.4 8.88178e-17
    endloop
  endfacet
  facet normal 0.573545 0 -0.819174
    outer loop
      vertex 6.86775 -0.4 0.134964
      vertex 6.67499 0 0
      vertex 6.86775 0.4 0.134964
    endloop
  endfacet
  facet normal 0.573545 0 -0.819174
    outer loop
      vertex 6.86775 0.4 0.134964
      vertex 6.67499 0 0
      vertex 6.67499 0.4 0
    endloop
  endfacet
  facet normal 0.707107 0 -0.707107
    outer loop
      vertex 7.03415 -0.4 0.301361
      vertex 6.86775 0.4 0.134964
      vertex 7.03415 0.4 0.301361
    endloop
  endfacet
  facet normal 0.707107 0 -0.707107
    outer loop
      vertex 6.86775 0.4 0.134964
      vertex 7.03415 -0.4 0.301361
      vertex 6.86775 -0.4 0.134964
    endloop
  endfacet
  facet normal -0.573545 0 0.819174
    outer loop
      vertex 5.13225 0.4 2.20329
      vertex 5.32501 -0.4 2.33826
      vertex 5.32501 0.4 2.33826
    endloop
  endfacet
  facet normal -0.573545 0 0.819174
    outer loop
      vertex 5.32501 -0.4 2.33826
      vertex 5.13225 0.4 2.20329
      vertex 5.13225 -0.4 2.20329
    endloop
  endfacet
  facet normal -0.707107 0 -0.707107
    outer loop
      vertex 5.13225 -0.4 0.134964
      vertex 4.96585 0.4 0.301361
      vertex 5.13225 0.4 0.134964
    endloop
  endfacet
  facet normal -0.707107 -0 -0.707107
    outer loop
      vertex 4.96585 0.4 0.301361
      vertex 5.13225 -0.4 0.134964
      vertex 4.96585 -0.4 0.301361
    endloop
  endfacet
  facet normal 0.819144 -0 0.573589
    outer loop
      vertex 7.03415 -0.4 2.0369
      vertex 7.16913 0.4 1.84413
      vertex 7.03415 0.4 2.0369
    endloop
  endfacet
  facet normal 0.819144 0 0.573589
    outer loop
      vertex 7.16913 0.4 1.84413
      vertex 7.03415 -0.4 2.0369
      vertex 7.16913 -0.4 1.84413
    endloop
  endfacet
  facet normal -0.906322 0 0.422587
    outer loop
      vertex 4.73143 -0.4 1.63086
      vertex 4.83087 0.4 1.84413
      vertex 4.73143 0.4 1.63086
    endloop
  endfacet
  facet normal -0.906322 0 0.422587
    outer loop
      vertex 4.83087 0.4 1.84413
      vertex 4.73143 -0.4 1.63086
      vertex 4.83087 -0.4 1.84413
    endloop
  endfacet
  facet normal -0.96592 0 0.258841
    outer loop
      vertex 4.67052 -0.4 1.40355
      vertex 4.73143 0.4 1.63086
      vertex 4.67052 0.4 1.40355
    endloop
  endfacet
  facet normal -0.96592 0 0.258841
    outer loop
      vertex 4.73143 0.4 1.63086
      vertex 4.67052 -0.4 1.40355
      vertex 4.73143 -0.4 1.63086
    endloop
  endfacet
  facet normal 0.996195 -0 0.0871501
    outer loop
      vertex 7.32948 -0.4 1.40355
      vertex 7.34999 0.4 1.16913
      vertex 7.32948 0.4 1.40355
    endloop
  endfacet
  facet normal 0.996195 0 0.0871501
    outer loop
      vertex 7.34999 0.4 1.16913
      vertex 7.32948 -0.4 1.40355
      vertex 7.34999 -0.4 1.16913
    endloop
  endfacet
  facet normal -0.996195 0 0.0871501
    outer loop
      vertex 4.65001 -0.4 1.16913
      vertex 4.67052 0.4 1.40355
      vertex 4.65001 0.4 1.16913
    endloop
  endfacet
  facet normal -0.996195 0 0.0871501
    outer loop
      vertex 4.67052 0.4 1.40355
      vertex 4.65001 -0.4 1.16913
      vertex 4.67052 -0.4 1.40355
    endloop
  endfacet
  facet normal -0.906322 0 -0.422587
    outer loop
      vertex 4.83087 -0.4 0.494125
      vertex 4.73143 0.4 0.707397
      vertex 4.83087 0.4 0.494125
    endloop
  endfacet
  facet normal -0.906322 -0 -0.422587
    outer loop
      vertex 4.73143 0.4 0.707397
      vertex 4.83087 -0.4 0.494125
      vertex 4.73143 -0.4 0.707397
    endloop
  endfacet
  facet normal -0.573545 -1.84298e-16 -0.819174
    outer loop
      vertex 5.13225 -0.4 0.134964
      vertex 5.32501 0 0
      vertex 5.32501 -0.4 8.88178e-17
    endloop
  endfacet
  facet normal -0.573545 -0 -0.819174
    outer loop
      vertex 5.13225 0.4 0.134964
      vertex 5.32501 0 0
      vertex 5.13225 -0.4 0.134964
    endloop
  endfacet
  facet normal -0.573545 0 -0.819174
    outer loop
      vertex 5.32501 0 0
      vertex 5.13225 0.4 0.134964
      vertex 5.32501 0.4 0
    endloop
  endfacet
  facet normal 0 1 0
    outer loop
      vertex 7.03415 0.4 2.0369
      vertex 6.67499 0.4 2.33826
      vertex 6.86775 0.4 2.20329
    endloop
  endfacet
  facet normal 0 1 0
    outer loop
      vertex 7.16913 0.4 1.84413
      vertex 6.67499 0.4 2.33826
      vertex 7.03415 0.4 2.0369
    endloop
  endfacet
  facet normal 0 1 0
    outer loop
      vertex 7.26857 0.4 1.63086
      vertex 6.67499 0.4 2.33826
      vertex 7.16913 0.4 1.84413
    endloop
  endfacet
  facet normal 0 1 0
    outer loop
      vertex 7.32948 0.4 1.40355
      vertex 6.67499 0.4 2.33826
      vertex 7.26857 0.4 1.63086
    endloop
  endfacet
  facet normal 0 1 0
    outer loop
      vertex 7.34999 0.4 1.16913
      vertex 6.67499 0.4 2.33826
      vertex 7.32948 0.4 1.40355
    endloop
  endfacet
  facet normal 0 1 -0
    outer loop
      vertex 7.32948 0.4 0.934708
      vertex 6.67499 0.4 2.33826
      vertex 7.34999 0.4 1.16913
    endloop
  endfacet
  facet normal 0 1 -0
    outer loop
      vertex 7.26857 0.4 0.707397
      vertex 6.67499 0.4 2.33826
      vertex 7.32948 0.4 0.934708
    endloop
  endfacet
  facet normal 0 1 -0
    outer loop
      vertex 7.16913 0.4 0.494125
      vertex 6.67499 0.4 2.33826
      vertex 7.26857 0.4 0.707397
    endloop
  endfacet
  facet normal 0 1 -0
    outer loop
      vertex 7.03415 0.4 0.301361
      vertex 6.67499 0.4 2.33826
      vertex 7.16913 0.4 0.494125
    endloop
  endfacet
  facet normal 0 1 -0
    outer loop
      vertex 6.86775 0.4 0.134964
      vertex 6.67499 0.4 2.33826
      vertex 7.03415 0.4 0.301361
    endloop
  endfacet
  facet normal 0 1 0
    outer loop
      vertex 6.67499 0.4 2.33826
      vertex 6.86775 0.4 0.134964
      vertex 6.67499 0.4 0
    endloop
  endfacet
  facet normal 0 1 0
    outer loop
      vertex 5.32501 0.4 2.33826
      vertex 4.96585 0.4 2.0369
      vertex 5.13225 0.4 2.20329
    endloop
  endfacet
  facet normal 0 1 0
    outer loop
      vertex 5.32501 0.4 2.33826
      vertex 4.83087 0.4 1.84413
      vertex 4.96585 0.4 2.0369
    endloop
  endfacet
  facet normal 0 1 0
    outer loop
      vertex 5.32501 0.4 2.33826
      vertex 4.73143 0.4 1.63086
      vertex 4.83087 0.4 1.84413
    endloop
  endfacet
  facet normal 0 1 0
    outer loop
      vertex 5.32501 0.4 2.33826
      vertex 4.67052 0.4 1.40355
      vertex 4.73143 0.4 1.63086
    endloop
  endfacet
  facet normal 0 1 0
    outer loop
      vertex 5.32501 0.4 2.33826
      vertex 4.65001 0.4 1.16913
      vertex 4.67052 0.4 1.40355
    endloop
  endfacet
  facet normal 0 1 0
    outer loop
      vertex 5.32501 0.4 2.33826
      vertex 4.67052 0.4 0.934708
      vertex 4.65001 0.4 1.16913
    endloop
  endfacet
  facet normal 0 1 0
    outer loop
      vertex 5.32501 0.4 2.33826
      vertex 4.73143 0.4 0.707397
      vertex 4.67052 0.4 0.934708
    endloop
  endfacet
  facet normal 0 1 0
    outer loop
      vertex 5.32501 0.4 2.33826
      vertex 4.83087 0.4 0.494125
      vertex 4.73143 0.4 0.707397
    endloop
  endfacet
  facet normal 0 1 0
    outer loop
      vertex 5.32501 0.4 2.33826
      vertex 4.96585 0.4 0.301361
      vertex 4.83087 0.4 0.494125
    endloop
  endfacet
  facet normal 0 1 0
    outer loop
      vertex 5.32501 0.4 2.33826
      vertex 5.13225 0.4 0.134964
      vertex 4.96585 0.4 0.301361
    endloop
  endfacet
  facet normal -0 1 0
    outer loop
      vertex 5.13225 0.4 0.134964
      vertex 5.32501 0.4 2.33826
      vertex 5.32501 0.4 0
    endloop
  endfacet
  facet normal -0.96592 0 -0.258841
    outer loop
      vertex 4.73143 -0.4 0.707397
      vertex 4.67052 0.4 0.934708
      vertex 4.73143 0.4 0.707397
    endloop
  endfacet
  facet normal -0.96592 -0 -0.258841
    outer loop
      vertex 4.67052 0.4 0.934708
      vertex 4.73143 -0.4 0.707397
      vertex 4.67052 -0.4 0.934708
    endloop
  endfacet
  facet normal -0.819144 0 -0.573589
    outer loop
      vertex 4.96585 -0.4 0.301361
      vertex 4.83087 0.4 0.494125
      vertex 4.96585 0.4 0.301361
    endloop
  endfacet
  facet normal -0.819144 -0 -0.573589
    outer loop
      vertex 4.83087 0.4 0.494125
      vertex 4.96585 -0.4 0.301361
      vertex 4.83087 -0.4 0.494125
    endloop
  endfacet
  facet normal 0.906322 -0 0.422587
    outer loop
      vertex 7.16913 -0.4 1.84413
      vertex 7.26857 0.4 1.63086
      vertex 7.16913 0.4 1.84413
    endloop
  endfacet
  facet normal 0.906322 0 0.422587
    outer loop
      vertex 7.26857 0.4 1.63086
      vertex 7.16913 -0.4 1.84413
      vertex 7.26857 -0.4 1.63086
    endloop
  endfacet
  facet normal 0.96592 0 -0.258841
    outer loop
      vertex 7.32948 -0.4 0.934708
      vertex 7.26857 0.4 0.707397
      vertex 7.32948 0.4 0.934708
    endloop
  endfacet
  facet normal 0.96592 0 -0.258841
    outer loop
      vertex 7.26857 0.4 0.707397
      vertex 7.32948 -0.4 0.934708
      vertex 7.26857 -0.4 0.707397
    endloop
  endfacet
  facet normal 0.573545 0 0.819174
    outer loop
      vertex 6.67499 0.4 2.33826
      vertex 6.86775 -0.4 2.20329
      vertex 6.86775 0.4 2.20329
    endloop
  endfacet
  facet normal 0.573545 0 0.819174
    outer loop
      vertex 6.86775 -0.4 2.20329
      vertex 6.67499 0.4 2.33826
      vertex 6.67499 -0.4 2.33826
    endloop
  endfacet
  facet normal 0.707107 -0 0.707107
    outer loop
      vertex 6.86775 -0.4 2.20329
      vertex 7.03415 0.4 2.0369
      vertex 6.86775 0.4 2.20329
    endloop
  endfacet
  facet normal 0.707107 0 0.707107
    outer loop
      vertex 7.03415 0.4 2.0369
      vertex 6.86775 -0.4 2.20329
      vertex 7.03415 -0.4 2.0369
    endloop
  endfacet
  facet normal -0.819144 0 0.573589
    outer loop
      vertex 4.83087 -0.4 1.84413
      vertex 4.96585 0.4 2.0369
      vertex 4.83087 0.4 1.84413
    endloop
  endfacet
  facet normal -0.819144 0 0.573589
    outer loop
      vertex 4.96585 0.4 2.0369
      vertex 4.83087 -0.4 1.84413
      vertex 4.96585 -0.4 2.0369
    endloop
  endfacet
  facet normal -0.707107 0 0.707107
    outer loop
      vertex 4.96585 -0.4 2.0369
      vertex 5.13225 0.4 2.20329
      vertex 4.96585 0.4 2.0369
    endloop
  endfacet
  facet normal -0.707107 0 0.707107
    outer loop
      vertex 5.13225 0.4 2.20329
      vertex 4.96585 -0.4 2.0369
      vertex 5.13225 -0.4 2.20329
    endloop
  endfacet
  facet normal -0.996195 0 -0.0871501
    outer loop
      vertex 4.67052 -0.4 0.934708
      vertex 4.65001 0.4 1.16913
      vertex 4.67052 0.4 0.934708
    endloop
  endfacet
  facet normal -0.996195 -0 -0.0871501
    outer loop
      vertex 4.65001 0.4 1.16913
      vertex 4.67052 -0.4 0.934708
      vertex 4.65001 -0.4 1.16913
    endloop
  endfacet
  facet normal 0 -1 0
    outer loop
      vertex 6.67499 -0.4 2.33826
      vertex 7.03415 -0.4 2.0369
      vertex 6.86775 -0.4 2.20329
    endloop
  endfacet
  facet normal 0 -1 0
    outer loop
      vertex 6.67499 -0.4 2.33826
      vertex 7.16913 -0.4 1.84413
      vertex 7.03415 -0.4 2.0369
    endloop
  endfacet
  facet normal 0 -1 0
    outer loop
      vertex 6.67499 -0.4 2.33826
      vertex 7.26857 -0.4 1.63086
      vertex 7.16913 -0.4 1.84413
    endloop
  endfacet
  facet normal 0 -1 0
    outer loop
      vertex 6.67499 -0.4 2.33826
      vertex 7.32948 -0.4 1.40355
      vertex 7.26857 -0.4 1.63086
    endloop
  endfacet
  facet normal 0 -1 0
    outer loop
      vertex 6.67499 -0.4 2.33826
      vertex 7.34999 -0.4 1.16913
      vertex 7.32948 -0.4 1.40355
    endloop
  endfacet
  facet normal 0 -1 0
    outer loop
      vertex 6.67499 -0.4 2.33826
      vertex 7.32948 -0.4 0.934708
      vertex 7.34999 -0.4 1.16913
    endloop
  endfacet
  facet normal 0 -1 0
    outer loop
      vertex 6.67499 -0.4 2.33826
      vertex 7.26857 -0.4 0.707397
      vertex 7.32948 -0.4 0.934708
    endloop
  endfacet
  facet normal 0 -1 0
    outer loop
      vertex 6.67499 -0.4 2.33826
      vertex 7.16913 -0.4 0.494125
      vertex 7.26857 -0.4 0.707397
    endloop
  endfacet
  facet normal 0 -1 0
    outer loop
      vertex 6.67499 -0.4 2.33826
      vertex 7.03415 -0.4 0.301361
      vertex 7.16913 -0.4 0.494125
    endloop
  endfacet
  facet normal 0 -1 0
    outer loop
      vertex 6.67499 -0.4 2.33826
      vertex 6.86775 -0.4 0.134964
      vertex 7.03415 -0.4 0.301361
    endloop
  endfacet
  facet normal -0 -1 0
    outer loop
      vertex 6.86775 -0.4 0.134964
      vertex 6.67499 -0.4 2.33826
      vertex 6.67499 -0.4 8.88178e-17
    endloop
  endfacet
  facet normal 0 -1 0
    outer loop
      vertex 4.96585 -0.4 2.0369
      vertex 5.32501 -0.4 2.33826
      vertex 5.13225 -0.4 2.20329
    endloop
  endfacet
  facet normal 0 -1 0
    outer loop
      vertex 4.83087 -0.4 1.84413
      vertex 5.32501 -0.4 2.33826
      vertex 4.96585 -0.4 2.0369
    endloop
  endfacet
  facet normal 0 -1 0
    outer loop
      vertex 4.73143 -0.4 1.63086
      vertex 5.32501 -0.4 2.33826
      vertex 4.83087 -0.4 1.84413
    endloop
  endfacet
  facet normal 0 -1 0
    outer loop
      vertex 4.67052 -0.4 1.40355
      vertex 5.32501 -0.4 2.33826
      vertex 4.73143 -0.4 1.63086
    endloop
  endfacet
  facet normal 0 -1 0
    outer loop
      vertex 4.65001 -0.4 1.16913
      vertex 5.32501 -0.4 2.33826
      vertex 4.67052 -0.4 1.40355
    endloop
  endfacet
  facet normal 0 -1 0
    outer loop
      vertex 4.67052 -0.4 0.934708
      vertex 5.32501 -0.4 2.33826
      vertex 4.65001 -0.4 1.16913
    endloop
  endfacet
  facet normal 0 -1 0
    outer loop
      vertex 4.73143 -0.4 0.707397
      vertex 5.32501 -0.4 2.33826
      vertex 4.67052 -0.4 0.934708
    endloop
  endfacet
  facet normal 0 -1 0
    outer loop
      vertex 4.83087 -0.4 0.494125
      vertex 5.32501 -0.4 2.33826
      vertex 4.73143 -0.4 0.707397
    endloop
  endfacet
  facet normal 0 -1 0
    outer loop
      vertex 4.96585 -0.4 0.301361
      vertex 5.32501 -0.4 2.33826
      vertex 4.83087 -0.4 0.494125
    endloop
  endfacet
  facet normal 0 -1 0
    outer loop
      vertex 5.13225 -0.4 0.134964
      vertex 5.32501 -0.4 2.33826
      vertex 4.96585 -0.4 0.301361
    endloop
  endfacet
  facet normal 0 -1 -0
    outer loop
      vertex 5.32501 -0.4 2.33826
      vertex 5.13225 -0.4 0.134964
      vertex 5.32501 -0.4 8.88178e-17
    endloop
  endfacet
  facet normal 0.996195 0 -0.0871501
    outer loop
      vertex 7.34999 -0.4 1.16913
      vertex 7.32948 0.4 0.934708
      vertex 7.34999 0.4 1.16913
    endloop
  endfacet
  facet normal 0.996195 0 -0.0871501
    outer loop
      vertex 7.32948 0.4 0.934708
      vertex 7.34999 -0.4 1.16913
      vertex 7.32948 -0.4 0.934708
    endloop
  endfacet
  facet normal 0.819144 0 -0.573589
    outer loop
      vertex 7.16913 -0.4 0.494125
      vertex 7.03415 0.4 0.301361
      vertex 7.16913 0.4 0.494125
    endloop
  endfacet
  facet normal 0.819144 0 -0.573589
    outer loop
      vertex 7.03415 0.4 0.301361
      vertex 7.16913 -0.4 0.494125
      vertex 7.03415 -0.4 0.301361
    endloop
  endfacet
  facet normal 0.96592 -0 0.258841
    outer loop
      vertex 7.26857 -0.4 1.63086
      vertex 7.32948 0.4 1.40355
      vertex 7.26857 0.4 1.63086
    endloop
  endfacet
  facet normal 0.96592 0 0.258841
    outer loop
      vertex 7.32948 0.4 1.40355
      vertex 7.26857 -0.4 1.63086
      vertex 7.32948 -0.4 1.40355
    endloop
  endfacet
  facet normal 0.906322 0 -0.422587
    outer loop
      vertex 7.26857 -0.4 0.707397
      vertex 7.16913 0.4 0.494125
      vertex 7.26857 0.4 0.707397
    endloop
  endfacet
  facet normal 0.906322 0 -0.422587
    outer loop
      vertex 7.16913 0.4 0.494125
      vertex 7.26857 -0.4 0.707397
      vertex 7.16913 -0.4 0.494125
    endloop
  endfacet
  facet normal -0.991445 0 0.130526
    outer loop
      vertex -2.47437 -2.3 0.224445
      vertex -2.35 2.3 1.16913
      vertex -2.47437 2.3 0.224445
    endloop
  endfacet
  facet normal -0.991445 0 0.130526
    outer loop
      vertex -2.35 2.3 1.16913
      vertex -2.47437 -2.3 0.224445
      vertex -2.35 -2.3 1.16913
    endloop
  endfacet
  facet normal -0.793353 0 -0.608762
    outer loop
      vertex -2.83901 -2.3 2.99413
      vertex -2.9714 2.3 3.16667
      vertex -2.83901 2.3 2.99413
    endloop
  endfacet
  facet normal -0.793353 -0 -0.608762
    outer loop
      vertex -2.9714 2.3 3.16667
      vertex -2.83901 -2.3 2.99413
      vertex -2.9714 -2.3 3.16667
    endloop
  endfacet
  facet normal -0.991445 0 -0.130526
    outer loop
      vertex -2.35 -2.3 1.16913
      vertex -2.47437 2.3 2.11382
      vertex -2.35 2.3 1.16913
    endloop
  endfacet
  facet normal -0.991445 -0 -0.130526
    outer loop
      vertex -2.47437 2.3 2.11382
      vertex -2.35 -2.3 1.16913
      vertex -2.47437 -2.3 2.11382
    endloop
  endfacet
  facet normal 0 1 0
    outer loop
      vertex -2.9714 -2.3 3.16667
      vertex -5.76558 -2.3 2.49861
      vertex -6 -2.3 2.51912
    endloop
  endfacet
  facet normal 0 1 0
    outer loop
      vertex -2.9714 -2.3 3.16667
      vertex -5.53828 -2.3 2.43771
      vertex -5.76558 -2.3 2.49861
    endloop
  endfacet
  facet normal 0 1 0
    outer loop
      vertex -2.9714 -2.3 3.16667
      vertex -5.32501 -2.3 2.33826
      vertex -5.53828 -2.3 2.43771
    endloop
  endfacet
  facet normal 0 1 0
    outer loop
      vertex -2.47437 -2.3 2.11382
      vertex -5.32501 -2.3 2.33826
      vertex -2.83901 -2.3 2.99413
    endloop
  endfacet
  facet normal 0 1 0
    outer loop
      vertex -2.35 -2.3 1.16913
      vertex -5.32501 -2.3 2.33826
      vertex -2.47437 -2.3 2.11382
    endloop
  endfacet
  facet normal 0 1 0
    outer loop
      vertex -5.32501 -2.3 5.10702e-16
      vertex -2.35 -2.3 1.16913
      vertex -2.47437 -2.3 0.224445
    endloop
  endfacet
  facet normal 0 1 0
    outer loop
      vertex -2.35 -2.3 1.16913
      vertex -5.32501 -2.3 5.10702e-16
      vertex -5.32501 -2.3 2.33826
    endloop
  endfacet
  facet normal 0 1 0
    outer loop
      vertex -5.32501 -2.3 5.10702e-16
      vertex -2.56734 -2.3 0
      vertex -6.67499 -2.3 5.10702e-16
    endloop
  endfacet
  facet normal 0 1 -0
    outer loop
      vertex -2.56734 -2.3 0
      vertex -5.32501 -2.3 5.10702e-16
      vertex -2.47437 -2.3 0.224445
    endloop
  endfacet
  facet normal 0 1 0
    outer loop
      vertex -5.32501 -2.3 2.33826
      vertex -2.9714 -2.3 3.16667
      vertex -2.83901 -2.3 2.99413
    endloop
  endfacet
  facet normal 0 1 0
    outer loop
      vertex -2.9714 -2.3 3.16667
      vertex -6 -2.3 2.51912
      vertex -9.5 -2.3 3.16667
    endloop
  endfacet
  facet normal 0 1 -0
    outer loop
      vertex -6.23442 -2.3 2.49861
      vertex -9.5 -2.3 3.16667
      vertex -6 -2.3 2.51912
    endloop
  endfacet
  facet normal 0 1 -0
    outer loop
      vertex -6.46172 -2.3 2.43771
      vertex -9.5 -2.3 3.16667
      vertex -6.23442 -2.3 2.49861
    endloop
  endfacet
  facet normal 0 1 -0
    outer loop
      vertex -6.67499 -2.3 2.33826
      vertex -9.5 -2.3 3.16667
      vertex -6.46172 -2.3 2.43771
    endloop
  endfacet
  facet normal 0 1 0
    outer loop
      vertex -6.67499 -2.3 2.33826
      vertex -9.5 -2.3 1.16913
      vertex -9.5 -2.3 3.16667
    endloop
  endfacet
  facet normal 0 1 -0
    outer loop
      vertex -6.67499 -2.3 5.10702e-16
      vertex -9.5 -2.3 1.16913
      vertex -6.67499 -2.3 2.33826
    endloop
  endfacet
  facet normal 0 1 0
    outer loop
      vertex -9.5 -2.3 1.16913
      vertex -6.67499 -2.3 5.10702e-16
      vertex -9.47134 -2.3 0.731871
    endloop
  endfacet
  facet normal 0 1 0
    outer loop
      vertex -9.47134 -2.3 0.731871
      vertex -6.67499 -2.3 5.10702e-16
      vertex -9.38585 -2.3 0.30209
    endloop
  endfacet
  facet normal 0 1 0
    outer loop
      vertex -6.67499 -2.3 5.10702e-16
      vertex -9.28331 -2.3 0
      vertex -9.38585 -2.3 0.30209
    endloop
  endfacet
  facet normal 0 1 0
    outer loop
      vertex -9.28331 -2.3 0
      vertex -6.67499 -2.3 5.10702e-16
      vertex -2.56734 -2.3 0
    endloop
  endfacet
  facet normal 0 -1 0
    outer loop
      vertex -6 2.3 2.51912
      vertex -2.9714 2.3 3.16667
      vertex -9.5 2.3 3.16667
    endloop
  endfacet
  facet normal 0 -1 0
    outer loop
      vertex -5.76558 2.3 2.49861
      vertex -2.9714 2.3 3.16667
      vertex -6 2.3 2.51912
    endloop
  endfacet
  facet normal 0 -1 0
    outer loop
      vertex -9.5 2.3 3.16667
      vertex -6.23442 2.3 2.49861
      vertex -6 2.3 2.51912
    endloop
  endfacet
  facet normal 0 -1 0
    outer loop
      vertex -9.5 2.3 3.16667
      vertex -6.46172 2.3 2.43771
      vertex -6.23442 2.3 2.49861
    endloop
  endfacet
  facet normal 0 -1 0
    outer loop
      vertex -9.5 2.3 3.16667
      vertex -6.67499 2.3 2.33826
      vertex -6.46172 2.3 2.43771
    endloop
  endfacet
  facet normal 0 -1 0
    outer loop
      vertex -9.5 2.3 1.16913
      vertex -6.67499 2.3 2.33826
      vertex -9.5 2.3 3.16667
    endloop
  endfacet
  facet normal 0 -1 0
    outer loop
      vertex -6.67499 2.3 0
      vertex -9.5 2.3 1.16913
      vertex -9.47134 2.3 0.731871
    endloop
  endfacet
  facet normal 0 -1 0
    outer loop
      vertex -6.67499 2.3 0
      vertex -9.47134 2.3 0.731871
      vertex -9.38585 2.3 0.30209
    endloop
  endfacet
  facet normal 0 -1 0
    outer loop
      vertex -6.67499 2.3 0
      vertex -9.38585 2.3 0.30209
      vertex -9.28331 2.3 0
    endloop
  endfacet
  facet normal 0 -1 0
    outer loop
      vertex -9.5 2.3 1.16913
      vertex -6.67499 2.3 0
      vertex -6.67499 2.3 2.33826
    endloop
  endfacet
  facet normal 0 -1 0
    outer loop
      vertex -5.53828 2.3 2.43771
      vertex -2.9714 2.3 3.16667
      vertex -5.76558 2.3 2.49861
    endloop
  endfacet
  facet normal 0 -1 0
    outer loop
      vertex -5.32501 2.3 2.33826
      vertex -2.9714 2.3 3.16667
      vertex -5.53828 2.3 2.43771
    endloop
  endfacet
  facet normal 0 -1 -0
    outer loop
      vertex -2.9714 2.3 3.16667
      vertex -5.32501 2.3 2.33826
      vertex -2.83901 2.3 2.99413
    endloop
  endfacet
  facet normal 0 -1 0
    outer loop
      vertex -5.32501 2.3 2.33826
      vertex -2.47437 2.3 2.11382
      vertex -2.83901 2.3 2.99413
    endloop
  endfacet
  facet normal 0 -1 0
    outer loop
      vertex -5.32501 2.3 2.33826
      vertex -2.35 2.3 1.16913
      vertex -2.47437 2.3 2.11382
    endloop
  endfacet
  facet normal 0 -1 0
    outer loop
      vertex -5.32501 2.3 0
      vertex -2.35 2.3 1.16913
      vertex -5.32501 2.3 2.33826
    endloop
  endfacet
  facet normal 0 -1 0
    outer loop
      vertex -2.35 2.3 1.16913
      vertex -5.32501 2.3 0
      vertex -2.47437 2.3 0.224445
    endloop
  endfacet
  facet normal 0 -1 0
    outer loop
      vertex -2.47437 2.3 0.224445
      vertex -5.32501 2.3 0
      vertex -2.56734 2.3 0
    endloop
  endfacet
  facet normal -0.92388 0 0.382683
    outer loop
      vertex -2.56734 -2.3 0
      vertex -2.47437 2.3 0.224445
      vertex -2.56734 2.3 0
    endloop
  endfacet
  facet normal -0.92388 0 0.382683
    outer loop
      vertex -2.47437 2.3 0.224445
      vertex -2.56734 -2.3 0
      vertex -2.47437 -2.3 0.224445
    endloop
  endfacet
  facet normal -0.92388 0 -0.382683
    outer loop
      vertex -2.47437 -2.3 2.11382
      vertex -2.83901 2.3 2.99413
      vertex -2.47437 2.3 2.11382
    endloop
  endfacet
  facet normal -0.92388 -0 -0.382683
    outer loop
      vertex -2.83901 2.3 2.99413
      vertex -2.47437 -2.3 2.11382
      vertex -2.83901 -2.3 2.99413
    endloop
  endfacet
  facet normal -0.258797 0 0.965932
    outer loop
      vertex -6.46172 2.3 2.43771
      vertex -6.23442 -2.3 2.49861
      vertex -6.23442 2.3 2.49861
    endloop
  endfacet
  facet normal -0.258797 0 0.965932
    outer loop
      vertex -6.23442 -2.3 2.49861
      vertex -6.46172 2.3 2.43771
      vertex -6.46172 -2.3 2.43771
    endloop
  endfacet
  facet normal 1 -0 0
    outer loop
      vertex -5.32501 0.4 2.33826
      vertex -5.32501 2.3 0
      vertex -5.32501 2.3 2.33826
    endloop
  endfacet
  facet normal 1 0 0
    outer loop
      vertex -5.32501 2.3 0
      vertex -5.32501 0.4 2.33826
      vertex -5.32501 0.4 0
    endloop
  endfacet
  facet normal 1 -0 0
    outer loop
      vertex -5.32501 -2.3 2.33826
      vertex -5.32501 -0.4 8.88178e-17
      vertex -5.32501 -0.4 2.33826
    endloop
  endfacet
  facet normal 1 0 0
    outer loop
      vertex -5.32501 -0.4 8.88178e-17
      vertex -5.32501 -2.3 2.33826
      vertex -5.32501 -2.3 5.10702e-16
    endloop
  endfacet
  facet normal -0.422641 0 0.906297
    outer loop
      vertex -6.67499 0.4 2.33826
      vertex -6.46172 2.3 2.43771
      vertex -6.67499 2.3 2.33826
    endloop
  endfacet
  facet normal -0.422641 0 0.906297
    outer loop
      vertex -6.46172 2.3 2.43771
      vertex -6.67499 0.4 2.33826
      vertex -6.46172 -2.3 2.43771
    endloop
  endfacet
  facet normal -0.422641 0 0.906297
    outer loop
      vertex -6.67499 -0.4 2.33826
      vertex -6.46172 -2.3 2.43771
      vertex -6.67499 0.4 2.33826
    endloop
  endfacet
  facet normal -0.422641 0 0.906297
    outer loop
      vertex -6.46172 -2.3 2.43771
      vertex -6.67499 -0.4 2.33826
      vertex -6.67499 -2.3 2.33826
    endloop
  endfacet
  facet normal 0 -2.22045e-16 -1
    outer loop
      vertex -6.67499 -0.4 8.88178e-17
      vertex -5.32501 -0.4 8.88178e-17
      vertex -5.32501 -2.3 5.10702e-16
    endloop
  endfacet
  facet normal 0 -2.22045e-16 -1
    outer loop
      vertex -6.67499 -0.4 8.88178e-17
      vertex -5.32501 -2.3 5.10702e-16
      vertex -6.67499 -2.3 5.10702e-16
    endloop
  endfacet
  facet normal -0 -2.22045e-16 -1
    outer loop
      vertex -5.32501 -0.4 8.88178e-17
      vertex -6.67499 -0.4 8.88178e-17
      vertex -5.32501 0 0
    endloop
  endfacet
  facet normal -0 -2.22045e-16 -1
    outer loop
      vertex -5.32501 0 0
      vertex -6.67499 -0.4 8.88178e-17
      vertex -6.67499 0 0
    endloop
  endfacet
  facet normal 0.422641 0 0.906297
    outer loop
      vertex -5.53828 2.3 2.43771
      vertex -5.32501 0.4 2.33826
      vertex -5.32501 2.3 2.33826
    endloop
  endfacet
  facet normal 0.422641 0 0.906297
    outer loop
      vertex -5.32501 0.4 2.33826
      vertex -5.53828 2.3 2.43771
      vertex -5.32501 -0.4 2.33826
    endloop
  endfacet
  facet normal 0.422641 -0 0.906297
    outer loop
      vertex -5.53828 -2.3 2.43771
      vertex -5.32501 -0.4 2.33826
      vertex -5.53828 2.3 2.43771
    endloop
  endfacet
  facet normal 0.422641 0 0.906297
    outer loop
      vertex -5.32501 -0.4 2.33826
      vertex -5.53828 -2.3 2.43771
      vertex -5.32501 -2.3 2.33826
    endloop
  endfacet
  facet normal -1 0 0
    outer loop
      vertex -6.67499 0.4 0
      vertex -6.67499 2.3 2.33826
      vertex -6.67499 2.3 0
    endloop
  endfacet
  facet normal -1 -0 0
    outer loop
      vertex -6.67499 2.3 2.33826
      vertex -6.67499 0.4 0
      vertex -6.67499 0.4 2.33826
    endloop
  endfacet
  facet normal -1 0 0
    outer loop
      vertex -6.67499 -2.3 5.10702e-16
      vertex -6.67499 -0.4 2.33826
      vertex -6.67499 -0.4 8.88178e-17
    endloop
  endfacet
  facet normal -1 -0 0
    outer loop
      vertex -6.67499 -0.4 2.33826
      vertex -6.67499 -2.3 5.10702e-16
      vertex -6.67499 -2.3 2.33826
    endloop
  endfacet
  facet normal 0.0871501 0 0.996195
    outer loop
      vertex -6 2.3 2.51912
      vertex -5.76558 -2.3 2.49861
      vertex -5.76558 2.3 2.49861
    endloop
  endfacet
  facet normal 0.0871501 0 0.996195
    outer loop
      vertex -5.76558 -2.3 2.49861
      vertex -6 2.3 2.51912
      vertex -6 -2.3 2.51912
    endloop
  endfacet
  facet normal 0.258797 0 0.965932
    outer loop
      vertex -5.76558 2.3 2.49861
      vertex -5.53828 -2.3 2.43771
      vertex -5.53828 2.3 2.43771
    endloop
  endfacet
  facet normal 0.258797 0 0.965932
    outer loop
      vertex -5.53828 -2.3 2.43771
      vertex -5.76558 2.3 2.49861
      vertex -5.76558 -2.3 2.49861
    endloop
  endfacet
  facet normal -0.0871501 0 0.996195
    outer loop
      vertex -6.23442 2.3 2.49861
      vertex -6 -2.3 2.51912
      vertex -6 2.3 2.51912
    endloop
  endfacet
  facet normal -0.0871501 0 0.996195
    outer loop
      vertex -6 -2.3 2.51912
      vertex -6.23442 2.3 2.49861
      vertex -6.23442 -2.3 2.49861
    endloop
  endfacet
  facet normal -0.573545 -1.84298e-16 -0.819174
    outer loop
      vertex -6.86775 -0.4 0.134964
      vertex -6.67499 0 0
      vertex -6.67499 -0.4 8.88178e-17
    endloop
  endfacet
  facet normal -0.573545 -0 -0.819174
    outer loop
      vertex -6.86775 0.4 0.134964
      vertex -6.67499 0 0
      vertex -6.86775 -0.4 0.134964
    endloop
  endfacet
  facet normal -0.573545 0 -0.819174
    outer loop
      vertex -6.67499 0 0
      vertex -6.86775 0.4 0.134964
      vertex -6.67499 0.4 0
    endloop
  endfacet
  facet normal -0.707107 0 -0.707107
    outer loop
      vertex -6.86775 -0.4 0.134964
      vertex -7.03415 0.4 0.301361
      vertex -6.86775 0.4 0.134964
    endloop
  endfacet
  facet normal -0.707107 -0 -0.707107
    outer loop
      vertex -7.03415 0.4 0.301361
      vertex -6.86775 -0.4 0.134964
      vertex -7.03415 -0.4 0.301361
    endloop
  endfacet
  facet normal 0.573545 0 0.819174
    outer loop
      vertex -5.32501 0.4 2.33826
      vertex -5.13225 -0.4 2.20329
      vertex -5.13225 0.4 2.20329
    endloop
  endfacet
  facet normal 0.573545 0 0.819174
    outer loop
      vertex -5.13225 -0.4 2.20329
      vertex -5.32501 0.4 2.33826
      vertex -5.32501 -0.4 2.33826
    endloop
  endfacet
  facet normal 0.707107 0 -0.707107
    outer loop
      vertex -4.96585 -0.4 0.301361
      vertex -5.13225 0.4 0.134964
      vertex -4.96585 0.4 0.301361
    endloop
  endfacet
  facet normal 0.707107 0 -0.707107
    outer loop
      vertex -5.13225 0.4 0.134964
      vertex -4.96585 -0.4 0.301361
      vertex -5.13225 -0.4 0.134964
    endloop
  endfacet
  facet normal -0.819144 0 0.573589
    outer loop
      vertex -7.16913 -0.4 1.84413
      vertex -7.03415 0.4 2.0369
      vertex -7.16913 0.4 1.84413
    endloop
  endfacet
  facet normal -0.819144 0 0.573589
    outer loop
      vertex -7.03415 0.4 2.0369
      vertex -7.16913 -0.4 1.84413
      vertex -7.03415 -0.4 2.0369
    endloop
  endfacet
  facet normal 0.906322 -0 0.422587
    outer loop
      vertex -4.83087 -0.4 1.84413
      vertex -4.73143 0.4 1.63086
      vertex -4.83087 0.4 1.84413
    endloop
  endfacet
  facet normal 0.906322 0 0.422587
    outer loop
      vertex -4.73143 0.4 1.63086
      vertex -4.83087 -0.4 1.84413
      vertex -4.73143 -0.4 1.63086
    endloop
  endfacet
  facet normal 0.96592 -0 0.258841
    outer loop
      vertex -4.73143 -0.4 1.63086
      vertex -4.67052 0.4 1.40355
      vertex -4.73143 0.4 1.63086
    endloop
  endfacet
  facet normal 0.96592 0 0.258841
    outer loop
      vertex -4.67052 0.4 1.40355
      vertex -4.73143 -0.4 1.63086
      vertex -4.67052 -0.4 1.40355
    endloop
  endfacet
  facet normal -0.996195 0 0.0871501
    outer loop
      vertex -7.34999 -0.4 1.16913
      vertex -7.32948 0.4 1.40355
      vertex -7.34999 0.4 1.16913
    endloop
  endfacet
  facet normal -0.996195 0 0.0871501
    outer loop
      vertex -7.32948 0.4 1.40355
      vertex -7.34999 -0.4 1.16913
      vertex -7.32948 -0.4 1.40355
    endloop
  endfacet
  facet normal 0.996195 -0 0.0871501
    outer loop
      vertex -4.67052 -0.4 1.40355
      vertex -4.65001 0.4 1.16913
      vertex -4.67052 0.4 1.40355
    endloop
  endfacet
  facet normal 0.996195 0 0.0871501
    outer loop
      vertex -4.65001 0.4 1.16913
      vertex -4.67052 -0.4 1.40355
      vertex -4.65001 -0.4 1.16913
    endloop
  endfacet
  facet normal 0.906322 0 -0.422587
    outer loop
      vertex -4.73143 -0.4 0.707397
      vertex -4.83087 0.4 0.494125
      vertex -4.73143 0.4 0.707397
    endloop
  endfacet
  facet normal 0.906322 0 -0.422587
    outer loop
      vertex -4.83087 0.4 0.494125
      vertex -4.73143 -0.4 0.707397
      vertex -4.83087 -0.4 0.494125
    endloop
  endfacet
  facet normal 0.573545 -1.81893e-16 -0.819174
    outer loop
      vertex -5.32501 0 0
      vertex -5.13225 -0.4 0.134964
      vertex -5.32501 -0.4 8.88178e-17
    endloop
  endfacet
  facet normal 0.573545 0 -0.819174
    outer loop
      vertex -5.13225 -0.4 0.134964
      vertex -5.32501 0 0
      vertex -5.13225 0.4 0.134964
    endloop
  endfacet
  facet normal 0.573545 0 -0.819174
    outer loop
      vertex -5.13225 0.4 0.134964
      vertex -5.32501 0 0
      vertex -5.32501 0.4 0
    endloop
  endfacet
  facet normal 0 1 0
    outer loop
      vertex -6.67499 0.4 2.33826
      vertex -7.03415 0.4 2.0369
      vertex -6.86775 0.4 2.20329
    endloop
  endfacet
  facet normal 0 1 0
    outer loop
      vertex -6.67499 0.4 2.33826
      vertex -7.16913 0.4 1.84413
      vertex -7.03415 0.4 2.0369
    endloop
  endfacet
  facet normal 0 1 0
    outer loop
      vertex -6.67499 0.4 2.33826
      vertex -7.26857 0.4 1.63086
      vertex -7.16913 0.4 1.84413
    endloop
  endfacet
  facet normal 0 1 0
    outer loop
      vertex -6.67499 0.4 2.33826
      vertex -7.32948 0.4 1.40355
      vertex -7.26857 0.4 1.63086
    endloop
  endfacet
  facet normal 0 1 0
    outer loop
      vertex -6.67499 0.4 2.33826
      vertex -7.34999 0.4 1.16913
      vertex -7.32948 0.4 1.40355
    endloop
  endfacet
  facet normal 0 1 0
    outer loop
      vertex -6.67499 0.4 2.33826
      vertex -7.32948 0.4 0.934708
      vertex -7.34999 0.4 1.16913
    endloop
  endfacet
  facet normal 0 1 0
    outer loop
      vertex -6.67499 0.4 2.33826
      vertex -7.26857 0.4 0.707397
      vertex -7.32948 0.4 0.934708
    endloop
  endfacet
  facet normal 0 1 0
    outer loop
      vertex -6.67499 0.4 2.33826
      vertex -7.16913 0.4 0.494125
      vertex -7.26857 0.4 0.707397
    endloop
  endfacet
  facet normal 0 1 0
    outer loop
      vertex -6.67499 0.4 2.33826
      vertex -7.03415 0.4 0.301361
      vertex -7.16913 0.4 0.494125
    endloop
  endfacet
  facet normal 0 1 0
    outer loop
      vertex -6.67499 0.4 2.33826
      vertex -6.86775 0.4 0.134964
      vertex -7.03415 0.4 0.301361
    endloop
  endfacet
  facet normal -0 1 0
    outer loop
      vertex -6.86775 0.4 0.134964
      vertex -6.67499 0.4 2.33826
      vertex -6.67499 0.4 0
    endloop
  endfacet
  facet normal 0 1 0
    outer loop
      vertex -4.96585 0.4 2.0369
      vertex -5.32501 0.4 2.33826
      vertex -5.13225 0.4 2.20329
    endloop
  endfacet
  facet normal 0 1 0
    outer loop
      vertex -4.83087 0.4 1.84413
      vertex -5.32501 0.4 2.33826
      vertex -4.96585 0.4 2.0369
    endloop
  endfacet
  facet normal 0 1 0
    outer loop
      vertex -4.73143 0.4 1.63086
      vertex -5.32501 0.4 2.33826
      vertex -4.83087 0.4 1.84413
    endloop
  endfacet
  facet normal 0 1 0
    outer loop
      vertex -4.67052 0.4 1.40355
      vertex -5.32501 0.4 2.33826
      vertex -4.73143 0.4 1.63086
    endloop
  endfacet
  facet normal 0 1 0
    outer loop
      vertex -4.65001 0.4 1.16913
      vertex -5.32501 0.4 2.33826
      vertex -4.67052 0.4 1.40355
    endloop
  endfacet
  facet normal 0 1 -0
    outer loop
      vertex -4.67052 0.4 0.934708
      vertex -5.32501 0.4 2.33826
      vertex -4.65001 0.4 1.16913
    endloop
  endfacet
  facet normal 0 1 -0
    outer loop
      vertex -4.73143 0.4 0.707397
      vertex -5.32501 0.4 2.33826
      vertex -4.67052 0.4 0.934708
    endloop
  endfacet
  facet normal 0 1 -0
    outer loop
      vertex -4.83087 0.4 0.494125
      vertex -5.32501 0.4 2.33826
      vertex -4.73143 0.4 0.707397
    endloop
  endfacet
  facet normal 0 1 -0
    outer loop
      vertex -4.96585 0.4 0.301361
      vertex -5.32501 0.4 2.33826
      vertex -4.83087 0.4 0.494125
    endloop
  endfacet
  facet normal 0 1 -0
    outer loop
      vertex -5.13225 0.4 0.134964
      vertex -5.32501 0.4 2.33826
      vertex -4.96585 0.4 0.301361
    endloop
  endfacet
  facet normal 0 1 0
    outer loop
      vertex -5.32501 0.4 2.33826
      vertex -5.13225 0.4 0.134964
      vertex -5.32501 0.4 0
    endloop
  endfacet
  facet normal 0.96592 0 -0.258841
    outer loop
      vertex -4.67052 -0.4 0.934708
      vertex -4.73143 0.4 0.707397
      vertex -4.67052 0.4 0.934708
    endloop
  endfacet
  facet normal 0.96592 0 -0.258841
    outer loop
      vertex -4.73143 0.4 0.707397
      vertex -4.67052 -0.4 0.934708
      vertex -4.73143 -0.4 0.707397
    endloop
  endfacet
  facet normal 0.819144 0 -0.573589
    outer loop
      vertex -4.83087 -0.4 0.494125
      vertex -4.96585 0.4 0.301361
      vertex -4.83087 0.4 0.494125
    endloop
  endfacet
  facet normal 0.819144 0 -0.573589
    outer loop
      vertex -4.96585 0.4 0.301361
      vertex -4.83087 -0.4 0.494125
      vertex -4.96585 -0.4 0.301361
    endloop
  endfacet
  facet normal -0.906322 0 0.422587
    outer loop
      vertex -7.26857 -0.4 1.63086
      vertex -7.16913 0.4 1.84413
      vertex -7.26857 0.4 1.63086
    endloop
  endfacet
  facet normal -0.906322 0 0.422587
    outer loop
      vertex -7.16913 0.4 1.84413
      vertex -7.26857 -0.4 1.63086
      vertex -7.16913 -0.4 1.84413
    endloop
  endfacet
  facet normal -0.96592 0 -0.258841
    outer loop
      vertex -7.26857 -0.4 0.707397
      vertex -7.32948 0.4 0.934708
      vertex -7.26857 0.4 0.707397
    endloop
  endfacet
  facet normal -0.96592 -0 -0.258841
    outer loop
      vertex -7.32948 0.4 0.934708
      vertex -7.26857 -0.4 0.707397
      vertex -7.32948 -0.4 0.934708
    endloop
  endfacet
  facet normal -0.573545 0 0.819174
    outer loop
      vertex -6.86775 0.4 2.20329
      vertex -6.67499 -0.4 2.33826
      vertex -6.67499 0.4 2.33826
    endloop
  endfacet
  facet normal -0.573545 0 0.819174
    outer loop
      vertex -6.67499 -0.4 2.33826
      vertex -6.86775 0.4 2.20329
      vertex -6.86775 -0.4 2.20329
    endloop
  endfacet
  facet normal -0.707107 0 0.707107
    outer loop
      vertex -7.03415 -0.4 2.0369
      vertex -6.86775 0.4 2.20329
      vertex -7.03415 0.4 2.0369
    endloop
  endfacet
  facet normal -0.707107 0 0.707107
    outer loop
      vertex -6.86775 0.4 2.20329
      vertex -7.03415 -0.4 2.0369
      vertex -6.86775 -0.4 2.20329
    endloop
  endfacet
  facet normal 0.819144 -0 0.573589
    outer loop
      vertex -4.96585 -0.4 2.0369
      vertex -4.83087 0.4 1.84413
      vertex -4.96585 0.4 2.0369
    endloop
  endfacet
  facet normal 0.819144 0 0.573589
    outer loop
      vertex -4.83087 0.4 1.84413
      vertex -4.96585 -0.4 2.0369
      vertex -4.83087 -0.4 1.84413
    endloop
  endfacet
  facet normal 0.707107 -0 0.707107
    outer loop
      vertex -5.13225 -0.4 2.20329
      vertex -4.96585 0.4 2.0369
      vertex -5.13225 0.4 2.20329
    endloop
  endfacet
  facet normal 0.707107 0 0.707107
    outer loop
      vertex -4.96585 0.4 2.0369
      vertex -5.13225 -0.4 2.20329
      vertex -4.96585 -0.4 2.0369
    endloop
  endfacet
  facet normal 0.996195 0 -0.0871501
    outer loop
      vertex -4.65001 -0.4 1.16913
      vertex -4.67052 0.4 0.934708
      vertex -4.65001 0.4 1.16913
    endloop
  endfacet
  facet normal 0.996195 0 -0.0871501
    outer loop
      vertex -4.67052 0.4 0.934708
      vertex -4.65001 -0.4 1.16913
      vertex -4.67052 -0.4 0.934708
    endloop
  endfacet
  facet normal 0 -1 0
    outer loop
      vertex -7.03415 -0.4 2.0369
      vertex -6.67499 -0.4 2.33826
      vertex -6.86775 -0.4 2.20329
    endloop
  endfacet
  facet normal 0 -1 0
    outer loop
      vertex -7.16913 -0.4 1.84413
      vertex -6.67499 -0.4 2.33826
      vertex -7.03415 -0.4 2.0369
    endloop
  endfacet
  facet normal 0 -1 0
    outer loop
      vertex -7.26857 -0.4 1.63086
      vertex -6.67499 -0.4 2.33826
      vertex -7.16913 -0.4 1.84413
    endloop
  endfacet
  facet normal 0 -1 0
    outer loop
      vertex -7.32948 -0.4 1.40355
      vertex -6.67499 -0.4 2.33826
      vertex -7.26857 -0.4 1.63086
    endloop
  endfacet
  facet normal 0 -1 0
    outer loop
      vertex -7.34999 -0.4 1.16913
      vertex -6.67499 -0.4 2.33826
      vertex -7.32948 -0.4 1.40355
    endloop
  endfacet
  facet normal 0 -1 0
    outer loop
      vertex -7.32948 -0.4 0.934708
      vertex -6.67499 -0.4 2.33826
      vertex -7.34999 -0.4 1.16913
    endloop
  endfacet
  facet normal 0 -1 0
    outer loop
      vertex -7.26857 -0.4 0.707397
      vertex -6.67499 -0.4 2.33826
      vertex -7.32948 -0.4 0.934708
    endloop
  endfacet
  facet normal 0 -1 0
    outer loop
      vertex -7.16913 -0.4 0.494125
      vertex -6.67499 -0.4 2.33826
      vertex -7.26857 -0.4 0.707397
    endloop
  endfacet
  facet normal 0 -1 0
    outer loop
      vertex -7.03415 -0.4 0.301361
      vertex -6.67499 -0.4 2.33826
      vertex -7.16913 -0.4 0.494125
    endloop
  endfacet
  facet normal 0 -1 0
    outer loop
      vertex -6.86775 -0.4 0.134964
      vertex -6.67499 -0.4 2.33826
      vertex -7.03415 -0.4 0.301361
    endloop
  endfacet
  facet normal 0 -1 -0
    outer loop
      vertex -6.67499 -0.4 2.33826
      vertex -6.86775 -0.4 0.134964
      vertex -6.67499 -0.4 8.88178e-17
    endloop
  endfacet
  facet normal 0 -1 0
    outer loop
      vertex -5.32501 -0.4 2.33826
      vertex -4.96585 -0.4 2.0369
      vertex -5.13225 -0.4 2.20329
    endloop
  endfacet
  facet normal 0 -1 0
    outer loop
      vertex -5.32501 -0.4 2.33826
      vertex -4.83087 -0.4 1.84413
      vertex -4.96585 -0.4 2.0369
    endloop
  endfacet
  facet normal 0 -1 0
    outer loop
      vertex -5.32501 -0.4 2.33826
      vertex -4.73143 -0.4 1.63086
      vertex -4.83087 -0.4 1.84413
    endloop
  endfacet
  facet normal 0 -1 0
    outer loop
      vertex -5.32501 -0.4 2.33826
      vertex -4.67052 -0.4 1.40355
      vertex -4.73143 -0.4 1.63086
    endloop
  endfacet
  facet normal 0 -1 0
    outer loop
      vertex -5.32501 -0.4 2.33826
      vertex -4.65001 -0.4 1.16913
      vertex -4.67052 -0.4 1.40355
    endloop
  endfacet
  facet normal 0 -1 0
    outer loop
      vertex -5.32501 -0.4 2.33826
      vertex -4.67052 -0.4 0.934708
      vertex -4.65001 -0.4 1.16913
    endloop
  endfacet
  facet normal 0 -1 0
    outer loop
      vertex -5.32501 -0.4 2.33826
      vertex -4.73143 -0.4 0.707397
      vertex -4.67052 -0.4 0.934708
    endloop
  endfacet
  facet normal 0 -1 0
    outer loop
      vertex -5.32501 -0.4 2.33826
      vertex -4.83087 -0.4 0.494125
      vertex -4.73143 -0.4 0.707397
    endloop
  endfacet
  facet normal 0 -1 0
    outer loop
      vertex -5.32501 -0.4 2.33826
      vertex -4.96585 -0.4 0.301361
      vertex -4.83087 -0.4 0.494125
    endloop
  endfacet
  facet normal 0 -1 0
    outer loop
      vertex -5.32501 -0.4 2.33826
      vertex -5.13225 -0.4 0.134964
      vertex -4.96585 -0.4 0.301361
    endloop
  endfacet
  facet normal -0 -1 0
    outer loop
      vertex -5.13225 -0.4 0.134964
      vertex -5.32501 -0.4 2.33826
      vertex -5.32501 -0.4 8.88178e-17
    endloop
  endfacet
  facet normal -0.996195 0 -0.0871501
    outer loop
      vertex -7.32948 -0.4 0.934708
      vertex -7.34999 0.4 1.16913
      vertex -7.32948 0.4 0.934708
    endloop
  endfacet
  facet normal -0.996195 -0 -0.0871501
    outer loop
      vertex -7.34999 0.4 1.16913
      vertex -7.32948 -0.4 0.934708
      vertex -7.34999 -0.4 1.16913
    endloop
  endfacet
  facet normal -0.819144 0 -0.573589
    outer loop
      vertex -7.03415 -0.4 0.301361
      vertex -7.16913 0.4 0.494125
      vertex -7.03415 0.4 0.301361
    endloop
  endfacet
  facet normal -0.819144 -0 -0.573589
    outer loop
      vertex -7.16913 0.4 0.494125
      vertex -7.03415 -0.4 0.301361
      vertex -7.16913 -0.4 0.494125
    endloop
  endfacet
  facet normal -0.96592 0 0.258841
    outer loop
      vertex -7.32948 -0.4 1.40355
      vertex -7.26857 0.4 1.63086
      vertex -7.32948 0.4 1.40355
    endloop
  endfacet
  facet normal -0.96592 0 0.258841
    outer loop
      vertex -7.26857 0.4 1.63086
      vertex -7.32948 -0.4 1.40355
      vertex -7.26857 -0.4 1.63086
    endloop
  endfacet
  facet normal -0.906322 0 -0.422587
    outer loop
      vertex -7.16913 -0.4 0.494125
      vertex -7.26857 0.4 0.707397
      vertex -7.16913 0.4 0.494125
    endloop
  endfacet
  facet normal -0.906322 -0 -0.422587
    outer loop
      vertex -7.26857 0.4 0.707397
      vertex -7.16913 -0.4 0.494125
      vertex -7.26857 -0.4 0.707397
    endloop
  endfacet
  facet normal -1 0 0
    outer loop
      vertex -9.5 -9.5 1.16913
      vertex -9.5 -2.3 3.16667
      vertex -9.5 -2.3 1.16913
    endloop
  endfacet
  facet normal -1 -0 0
    outer loop
      vertex -9.5 -2.3 3.16667
      vertex -9.5 -9.5 1.16913
      vertex -9.5 -9.5 3.16667
    endloop
  endfacet
  facet normal -1 -0 0
    outer loop
      vertex -9.5 9.5 1.16913
      vertex -9.5 2.3 1.16913
      vertex -9.5 9.5 3.16667
    endloop
  endfacet
  facet normal -1 -0 0
    outer loop
      vertex -9.5 9.5 3.16667
      vertex -9.5 2.3 1.16913
      vertex -9.5 2.3 3.16667
    endloop
  endfacet
  facet normal 0 0 1
    outer loop
      vertex 9.5 9.5 3.16667
      vertex 2.9714 2.3 3.16667
      vertex 9.5 2.3 3.16667
    endloop
  endfacet
  facet normal 0 0 1
    outer loop
      vertex 2.9714 2.3 3.16667
      vertex -2.9714 2.3 3.16667
      vertex 2.9714 -2.3 3.16667
    endloop
  endfacet
  facet normal 0 0 1
    outer loop
      vertex 9.5 9.5 3.16667
      vertex -2.9714 2.3 3.16667
      vertex 2.9714 2.3 3.16667
    endloop
  endfacet
  facet normal -0 0 1
    outer loop
      vertex -9.5 9.5 3.16667
      vertex -2.9714 2.3 3.16667
      vertex 9.5 9.5 3.16667
    endloop
  endfacet
  facet normal 0 0 1
    outer loop
      vertex -2.9714 2.3 3.16667
      vertex -9.5 9.5 3.16667
      vertex -9.5 2.3 3.16667
    endloop
  endfacet
  facet normal -0 0 1
    outer loop
      vertex 2.9714 -2.3 3.16667
      vertex 9.5 -9.5 3.16667
      vertex 9.5 -2.3 3.16667
    endloop
  endfacet
  facet normal 0 0 1
    outer loop
      vertex -2.9714 -2.3 3.16667
      vertex 2.9714 -2.3 3.16667
      vertex -2.9714 2.3 3.16667
    endloop
  endfacet
  facet normal 0 0 1
    outer loop
      vertex 2.9714 -2.3 3.16667
      vertex -2.9714 -2.3 3.16667
      vertex 9.5 -9.5 3.16667
    endloop
  endfacet
  facet normal 0 0 1
    outer loop
      vertex -9.5 -9.5 3.16667
      vertex -2.9714 -2.3 3.16667
      vertex -9.5 -2.3 3.16667
    endloop
  endfacet
  facet normal 0 0 1
    outer loop
      vertex -2.9714 -2.3 3.16667
      vertex -9.5 -9.5 3.16667
      vertex 9.5 -9.5 3.16667
    endloop
  endfacet
  facet normal 1 -0 0
    outer loop
      vertex 9.5 -9.5 3.16667
      vertex 9.5 -2.3 1.16913
      vertex 9.5 -2.3 3.16667
    endloop
  endfacet
  facet normal 1 0 0
    outer loop
      vertex 9.5 -2.3 1.16913
      vertex 9.5 -9.5 3.16667
      vertex 9.5 -9.5 1.16913
    endloop
  endfacet
  facet normal 1 -0 0
    outer loop
      vertex 9.5 2.3 3.16667
      vertex 9.5 9.5 1.16913
      vertex 9.5 9.5 3.16667
    endloop
  endfacet
  facet normal 1 0 0
    outer loop
      vertex 9.5 2.3 1.16913
      vertex 9.5 9.5 1.16913
      vertex 9.5 2.3 3.16667
    endloop
  endfacet
endsolid OpenSCAD_Model
